<?xml version="1.0" standalone="no"?>
<!DOCTYPE svg PUBLIC "-//W3C//DTD SVG 1.1//EN" "http://www.w3.org/Graphics/SVG/1.1/DTD/svg11.dtd" >
<svg xmlns="http://www.w3.org/2000/svg">
<metadata></metadata>
<defs>
<font id="rockoultraflfregular" horiz-adv-x="1669" >
<font-face units-per-em="2048" ascent="1638" descent="-410" />
<missing-glyph horiz-adv-x="512" />
<glyph horiz-adv-x="0" />
<glyph horiz-adv-x="682" />
<glyph horiz-adv-x="620" d="M41 1485q0 -63 21.5 -112.5t57.5 -84.5t85 -53t104 -18t104.5 21.5t86.5 57t58.5 85t21.5 104.5q0 33 -22.5 55.5t-55.5 22.5t-54.5 -22.5t-21.5 -55.5q0 -47 -35 -81t-82 -34t-80.5 34t-33.5 81q0 33 -22.5 55.5t-55.5 22.5t-54.5 -22.5t-21.5 -55.5z" />
<glyph horiz-adv-x="481" d="M41 961q0 -84 57.5 -142.5t141.5 -58.5t142 58.5t58 142.5q0 41 -15 76.5t-43 63t-64.5 43t-77.5 15.5t-78 -15.5t-63.5 -43t-42 -63t-15.5 -76.5z" />
<glyph horiz-adv-x="405" d="M41 1401q0 -68 47 -115t115 -47t115 47t47 115t-47 115t-115 47t-115 -47.5t-47 -114.5zM123 1401q0 35 22.5 57.5t57.5 22.5t57.5 -22.5t22.5 -57.5t-22.5 -57.5t-57.5 -22.5t-57.5 22.5t-22.5 57.5z" />
<glyph horiz-adv-x="868" d="M25 358h819v629l-191 191h-628v-820zM35 369v798h614l185 -184v-614h-799zM109 764q0 -68 25.5 -127t69.5 -103.5t103.5 -70t126.5 -25.5q53 0 103.5 16.5t97.5 53.5l-72 72q-10 -6 -17 -11.5t-24 -13.5q27 12 39 39t12 51q0 23 -7.5 47t-30.5 51q-27 29 -68 57.5 t-57 47.5q-12 16 -19.5 28.5t-7.5 32.5q0 29 21.5 52.5t62.5 23.5q16 0 39.5 -8t60.5 -29l70 70q-47 39 -99.5 55.5t-103.5 16.5q-68 0 -127 -26t-103 -70t-69.5 -103.5t-25.5 -126.5zM119 764q0 66 24.5 123t67.5 100t100.5 67.5t122.5 24.5q47 0 94 -13t95 -48l-58 -57 q-23 16 -51.5 25t-44.5 9q-39 0 -68.5 -22.5t-29.5 -63.5q0 -16 6 -32.5t24 -34.5q14 -14 31 -27.5t27 -19.5q37 -27 50 -40.5t17 -17.5q20 -29 28.5 -49t8.5 -43q0 -29 -13 -49.5t-30.5 -34.5t-34 -21.5t-24.5 -9.5q41 6 67.5 18.5t34.5 16.5l55 -55q-47 -35 -95 -47 t-89 -12q-66 0 -123 24.5t-100 66.5t-67.5 99t-24.5 123zM205 764q0 -66 24.5 -109t57 -69.5t64.5 -36.5t46 -10q39 0 63.5 24.5t24.5 48.5q0 41 -26 68q-20 20 -63.5 50t-65.5 54q-20 23 -29.5 49.5t-9.5 51.5q0 59 47 90q-72 -35 -102.5 -95.5t-30.5 -115.5zM217 764 q0 43 17.5 88t52.5 76q-4 -10 -5 -21.5t-1 -21.5q0 -27 7.5 -52.5t30.5 -54.5q4 -4 14.5 -13t45.5 -36q29 -23 45 -35t27 -22q10 -14 17 -27.5t7 -32.5q0 -23 -23.5 -42t-54.5 -19q-25 0 -60.5 15.5t-62.5 43.5q-29 29 -43 66t-14 88zM618 629l70 -68q39 43 55.5 97.5 t16.5 105.5q0 113 -72 203l-70 -70q16 -23 31 -54.5t15 -78.5q0 -33 -11.5 -70t-34.5 -65zM633 631q23 29 32 63.5t9 69.5q0 45 -12.5 74.5t-28.5 58.5l55 53q35 -47 47.5 -96t12.5 -90q0 -117 -62 -189z" />
<glyph unicode="&#xd;" horiz-adv-x="477" d="M80 160q0 -33 12 -62.5t33.5 -51t50.5 -34t62 -12.5q66 0 112.5 47t46.5 113v829q0 33 -12 61.5t-33.5 50t-51.5 34t-62 12.5q-66 0 -112 -46t-46 -112v-829z" />
<glyph horiz-adv-x="2297" d="M41 1411q0 -51 36 -88t89 -37h78v-766q0 -57 39 -96t94 -39q57 0 96 39t39 96v883q0 53 -40 93t-95 40h-211q-53 0 -89 -36t-36 -89zM401 125q0 -57 39 -91t84 -34q29 0 55 12t44 35l1024 1315q27 37 26 76q0 33 -12 57.5t-31.5 38.5t-41 21.5t-40.5 7.5 q-29 0 -54.5 -12.5t-43.5 -34.5l-1024 -1315q-25 -35 -25 -76zM1403 393q0 -86 32.5 -162.5t90 -134t134.5 -90.5t163 -33t162.5 33t134 90.5t90.5 134t33 162.5q0 88 -39 156.5t-88 114.5q16 16 41.5 56.5t25.5 108.5q0 72 -29.5 133.5t-79 106.5t-115 70.5t-136.5 25.5 q-72 0 -137.5 -25.5t-114.5 -70.5t-79 -106.5t-30 -133.5q0 -68 25.5 -108.5t42.5 -56.5q-49 -45 -88 -114t-39 -157zM1671 393q0 61 45 105.5t107 44.5q61 0 105 -44.5t44 -105.5q0 -63 -44 -106t-105 -43t-106.5 43t-45.5 106zM1731 829q0 39 26.5 67t65.5 28t65.5 -28 t26.5 -67q0 -37 -26.5 -63.5t-65.5 -26.5t-65.5 27t-26.5 63z" />
<glyph horiz-adv-x="1316" d="M41 981q0 -59 41 -100t100 -41h2v-682q0 -66 46 -112t112 -46q33 0 62.5 12.5t51 34t34 50t12.5 61.5v682h418v-680q0 -33 12 -62.5t33.5 -51t50 -34t61.5 -12.5q66 0 113 47t47 113v805q0 33 -12.5 61.5t-34 50t-51 33.5t-62.5 12h-575v52q0 29 7 48t34 19q20 0 39.5 -8 t38 -17.5t34 -16.5t31.5 -7q47 0 82 43t35 96t-26.5 93t-68.5 68t-93.5 42t-102.5 14q-84 0 -145.5 -28.5t-102.5 -78.5t-60.5 -119t-19.5 -148v-52h-2q-59 0 -100 -41t-41 -100zM907 1378q0 -72 49.5 -122t120.5 -50q72 0 122 50.5t50 121.5q0 72 -50 121t-122 49t-121 -49 t-49 -121z" />
<glyph horiz-adv-x="843" d="M41 981q0 -59 41 -100t100 -41h2v-682q0 -66 46 -112t112 -46q33 0 62.5 12.5t51 34t34 50t12.5 61.5v682h94q59 0 100 41t41 100t-41 100t-100 41h-94v52q0 29 7 48t34 19q20 0 39.5 -8t38 -17.5t34 -16.5t31.5 -7q47 0 82 43t35 96t-26.5 93t-68.5 68t-93.5 42 t-102.5 14q-84 0 -145.5 -28.5t-102.5 -78.5t-60.5 -119t-19.5 -148v-52h-2q-59 0 -100 -41t-41 -100zM934 160q0 -33 12.5 -62.5t34 -51t50 -34t61.5 -12.5q66 0 113 47t47 113v1218q0 33 -12.5 61.5t-34 50t-51 34t-62.5 12.5q-66 0 -112 -46t-46 -112v-1218z" />
<glyph horiz-adv-x="1271" d="M41 500q0 -45 33 -80q35 -33 80 -33q47 0 79 33l31 31v-273q0 -74 52.5 -126t125.5 -52h639q68 0 117 48t49 118t-49 118t-117 48h-458v477l231 231q33 33 33 78q0 47 -33 82q-35 33 -82 33q-45 0 -78 -33l-71 -72v230q0 74 -52.5 126t-128.5 52q-74 0 -126 -52t-52 -126 v-588l-190 -190q-33 -33 -33 -80z" />
<glyph horiz-adv-x="845" d="M41 500q0 -45 33 -80q35 -33 80 -33q47 0 79 33l31 31v-291q0 -33 12.5 -62.5t34 -51t50 -34t61.5 -12.5q66 0 113 47t47 113v608l190 190q33 33 33 78q0 47 -33 82q-35 33 -82 33q-45 0 -78 -33l-30 -31v291q0 33 -12.5 61.5t-34 50t-51 34t-62.5 12.5q-66 0 -112 -46 t-46 -112v-608l-190 -190q-33 -33 -33 -80z" />
<glyph horiz-adv-x="1409" d="M94 166q0 -70 49.5 -118t116.5 -48h928q70 0 118 48t48 118t-48.5 118t-117.5 48h-586l694 940q16 23 24.5 45t8.5 53q0 70 -49 118t-119 48h-887q-70 0 -119 -48t-49 -118t49.5 -118t118.5 -48h539l-684 -936q-16 -23 -25.5 -46t-9.5 -56zM397 1946q0 -63 21.5 -112.5 t57.5 -84.5t85 -53.5t105 -18.5q55 0 104 21.5t86 57.5t58.5 85t21.5 105q0 33 -22.5 55t-55.5 22t-54.5 -22.5t-21.5 -54.5q0 -47 -34.5 -81t-81.5 -34t-81 33.5t-34 81.5q0 33 -22.5 55t-55.5 22t-54.5 -22t-21.5 -55z" />
<glyph horiz-adv-x="1054" d="M41 172q0 -72 50 -122t122 -50h659q59 0 100.5 41t41.5 100q0 57 -41 98.5t-101 41.5h-383l480 585q23 27 32 50.5t9 58.5q0 72 -50.5 122t-121.5 50h-615q-59 0 -100 -41t-41 -100q0 -57 41 -98.5t100 -41.5h338l-481 -585q-23 -27 -31 -50.5t-8 -58.5zM322 1485 q0 -102 62 -158.5t153 -56.5q45 0 83.5 16.5t68.5 46t47.5 68.5t17.5 84q0 27 -18.5 44t-45.5 17t-43 -17.5t-16 -43.5q0 -39 -28 -65.5t-66 -26.5q-39 0 -66 26.5t-27 65.5q0 27 -17 44t-44 17t-44 -17t-17 -44z" />
<glyph unicode=" "  horiz-adv-x="512" />
<glyph unicode="&#x09;" horiz-adv-x="512" />
<glyph unicode="&#xa0;" horiz-adv-x="512" />
<glyph unicode="!" horiz-adv-x="587" d="M94 201q0 -84 57.5 -142.5t141.5 -58.5t142.5 58.5t58.5 142.5q0 41 -15.5 76.5t-43 63.5t-64.5 43t-78 15t-78 -15t-63.5 -43t-42 -63.5t-15.5 -76.5zM127 653q0 -70 48 -118t118 -48t118 48.5t48 117.5v717q0 70 -48.5 118t-117.5 48q-70 0 -118 -48t-48 -118v-717z " />
<glyph unicode="&#x22;" horiz-adv-x="657" d="M41 1448q0 -8 2 -14l51 -236q6 -31 25.5 -54.5t52.5 -23.5t52.5 23.5t25.5 54.5l51 236q2 6 2 14q0 53 -42 84t-89 31t-89 -31t-42 -84zM354 1448q0 -8 2 -14l52 -236q6 -31 25.5 -54.5t51.5 -23.5q33 0 52.5 23.5t25.5 54.5l51 236q2 6 2 14q0 53 -42 84t-89 31t-89 -31 t-42 -84z" />
<glyph unicode="#" horiz-adv-x="1259" d="M53 768q0 -47 34 -81t81 -34h154v-153q0 -47 34.5 -81t81.5 -34t81 34t34 81v153h154v-153q0 -47 33.5 -81t80.5 -34t81 34t34 81v153h154q47 0 81.5 34t34.5 81t-34.5 81t-81.5 34h-154v153h154q47 0 81.5 35t34.5 82t-34.5 81t-81.5 34h-154v153q0 47 -34 81t-81 34 t-80.5 -34t-33.5 -81v-153h-154v153q0 47 -34 81t-81 34t-81.5 -34t-34.5 -81v-153h-154q-47 0 -81 -34t-34 -81t34 -82t81 -35h154v-153h-154q-47 0 -81 -34t-34 -81zM553 883v153h154v-153h-154z" />
<glyph unicode="$" horiz-adv-x="1261" d="M59 346q0 -72 42 -130t102.5 -103t129 -75t122.5 -42v-59q0 -76 52 -128.5t126 -52.5t127 52.5t53 128.5v59q49 12 116.5 39.5t129 83t104.5 145.5t43 225q0 96 -31.5 168t-86 125.5t-128 90t-157.5 61.5l-182 55q-47 14 -77 30.5t-46.5 33t-22.5 36t-6 39.5 q0 63 51 105.5t117 42.5t110 -26.5t81.5 -58.5t77.5 -58.5t98 -26.5q53 0 97 36t44 124q0 55 -30 99t-75 78t-99 57.5t-101 37.5v10q0 76 -52.5 128.5t-125.5 52.5q-74 0 -127.5 -52.5t-53.5 -128.5v-2q-49 -12 -113.5 -37.5t-121 -76t-96 -130t-39.5 -198.5 q0 -84 31.5 -149.5t85 -114.5t124 -84t148.5 -60l174 -53q68 -23 121 -62.5t53 -103.5q0 -20 -10.5 -49t-33 -55.5t-59 -46t-90.5 -19.5q-80 0 -137 33t-103 73t-88 72.5t-96 32.5q-72 0 -122 -50t-50 -122z" />
<glyph unicode="%" horiz-adv-x="1943" d="M41 1165q0 -82 31.5 -154.5t85 -126t126 -85t154.5 -31.5t154 31.5t125 85t85 126t32 154.5t-32 155t-85 126t-125 85t-154 32t-154.5 -32t-126 -85t-85 -126t-31.5 -155zM266 1165q0 72 50.5 122t121.5 50q72 0 121 -50t49 -122t-49 -122t-121 -50t-122 50t-50 122z M340 166q0 -37 14.5 -68.5t38 -53t53 -34t60.5 -12.5q37 0 71.5 16t59.5 49l1014 1305q37 45 37 102q0 45 -17.5 76t-42 51.5t-54.5 29.5t-54 9q-37 0 -72 -16t-59 -47l-1014 -1305q-35 -47 -35 -102zM1108 371q0 -82 31.5 -154t85 -126t126 -86t154.5 -32t155 32t126 86 t85 126t32 154t-32 154.5t-85 126t-126 85t-155 31.5t-154.5 -31.5t-126 -85t-85 -126t-31.5 -154.5zM1333 371q0 72 50.5 122t121.5 50q72 0 122 -50.5t50 -121.5q0 -72 -50 -121t-122 -49t-122 49t-50 121z" />
<glyph unicode="&#x26;" horiz-adv-x="1370" d="M41 532q0 -117 45 -219t124 -178t182.5 -119t219.5 -43q92 0 192.5 35t188.5 117l84 -84q43 -43 103 -43q31 0 58.5 13.5t48 34t31.5 47t11 54.5q0 57 -43 101l-115 114q35 66 51.5 123.5t16.5 94.5t-11 72.5t-31.5 64t-51.5 46t-68 17.5q-74 0 -104 -46t-53 -120 l-375 375q-10 10 -31.5 39t-21.5 74q0 47 32.5 82t79.5 35t77 -30t40 -77q10 -51 61.5 -85t112.5 -34q37 0 69.5 16.5t56 43t37 60.5t13.5 71q0 88 -41 158.5t-106.5 119.5t-149.5 75t-172 26q-92 0 -178 -33t-150.5 -90.5t-103.5 -135t-39 -169.5q0 -53 11.5 -93.5 t28.5 -70t36.5 -51t38.5 -35.5q-66 -35 -106 -79t-62.5 -92t-29.5 -95.5t-7 -86.5zM375 518q0 90 67 158l322 -322q-63 -72 -152 -71q-51 0 -94 20.5t-74.5 53t-50 74.5t-18.5 87z" />
<glyph unicode="'" horiz-adv-x="344" d="M41 1448q0 -8 2 -14l51 -236q6 -31 25.5 -54.5t52.5 -23.5t52.5 23.5t25.5 54.5l51 236q2 6 2 14q0 53 -42 84t-89 31t-89 -31t-42 -84z" />
<glyph unicode="(" horiz-adv-x="849" d="M41 768q0 -141 36 -264t93 -224.5t128 -181.5t140.5 -134t131 -82.5t98.5 -28.5q68 0 112.5 47t44.5 106q0 41 -24.5 81t-77.5 73q-53 31 -113.5 86t-114 132t-88 175t-34.5 215t34.5 215t88 175t114 132.5t113.5 85.5q53 33 77.5 73t24.5 81q0 61 -44 107t-113 46 q-37 0 -98.5 -28.5t-131 -82.5t-140.5 -134t-128 -181.5t-93 -224.5t-36 -264z" />
<glyph unicode=")" horiz-adv-x="849" d="M25 6q0 -59 45 -106t112 -47q37 0 98.5 28.5t131 82.5t140.5 134t128 181.5t93 224.5t36 264t-36 264t-93 224.5t-128 181.5t-140.5 134t-131 82.5t-98.5 28.5q-70 0 -113.5 -46t-43.5 -107q0 -41 24.5 -81t77.5 -73q51 -31 112.5 -86t115 -132t88 -175t34.5 -215 t-34.5 -215t-88 -175t-115 -132t-112.5 -86q-53 -33 -77.5 -73t-24.5 -81z" />
<glyph unicode="*" horiz-adv-x="925" d="M41 915q0 -31 11 -51t28.5 -34.5t38 -20.5t39.5 -6q31 0 57 14l133 78v-154q0 -47 34 -80.5t81 -33.5t81 33.5t34 80.5v154l133 -78q23 -14 57 -14q18 0 38.5 6t38 20.5t29 35t11.5 50.5q0 29 -14.5 57.5t-43.5 45.5l-133 76l133 77q29 16 43.5 44t14.5 57q0 59 -38 85.5 t-77 26.5q-31 0 -57 -14l-135 -78v154q0 47 -34 82t-81 35t-81 -35t-34 -82v-154l-133 78q-27 14 -57 14q-16 0 -37 -6t-38 -20.5t-29.5 -34.5t-12.5 -51q0 -63 59 -101l133 -77l-133 -76q-29 -16 -44 -44t-15 -59z" />
<glyph unicode="+" horiz-adv-x="765" d="M25 768q0 -47 32.5 -80t79.5 -33h133v-133q0 -47 33 -79.5t80 -32.5t80 32.5t33 79.5v133h133q47 0 79.5 33t32.5 80t-32.5 80t-79.5 33h-133v133q0 47 -33 79.5t-80 32.5t-80 -32.5t-33 -79.5v-133h-133q-47 0 -79.5 -33t-32.5 -80z" />
<glyph unicode="," horiz-adv-x="481" d="M41 201q0 -61 31.5 -108.5t79.5 -69.5l-19 -43q-10 -25 -10 -41q0 -43 30.5 -74t73.5 -31q33 0 59.5 17.5t39.5 46.5l98 225q16 35 16 78q0 41 -15 76.5t-43 63.5t-64.5 43t-77.5 15t-78 -15t-63.5 -43t-42 -63.5t-15.5 -76.5z" />
<glyph unicode="-" horiz-adv-x="798" d="M41 768q0 -47 32.5 -80t80.5 -33h491q47 0 80 33t33 80t-33 80t-80 33h-491q-47 0 -80 -33t-33 -80z" />
<glyph unicode="." horiz-adv-x="481" d="M41 201q0 -84 57.5 -142.5t141.5 -58.5t142 58.5t58 142.5q0 41 -15 76.5t-43 63.5t-64.5 43t-77.5 15t-78 -15t-63.5 -43t-42 -63.5t-15.5 -76.5z" />
<glyph unicode="/" horiz-adv-x="1396" d="M25 166q0 -37 14 -68.5t37.5 -53t53.5 -34t60 -12.5q37 0 72 16t60 49l1013 1305q37 45 37 102q0 45 -17.5 76t-42 51.5t-54 29.5t-54.5 9q-37 0 -71.5 -16t-59.5 -47l-1014 -1305q-35 -47 -34 -102z" />
<glyph unicode="0" d="M41 768q0 -164 62.5 -309.5t170 -253t252 -170t308.5 -62.5t309 62.5t252.5 170t170 253t62.5 309.5t-62.5 309.5t-170 253t-253 170t-308.5 62.5q-164 0 -308.5 -62.5t-252 -170t-170 -253t-62.5 -309.5zM399 768q0 90 34 169t93.5 138.5t138 94t169.5 34.5 q90 0 169.5 -34.5t139 -94t93.5 -138.5t34 -169t-34 -169t-93.5 -138.5t-139 -93t-169.5 -33.5t-169 33.5t-138.5 93t-93.5 138.5t-34 169z" />
<glyph unicode="1" horiz-adv-x="747" d="M27 1370q0 -70 48 -118t118 -48h102v-1024q0 -76 52 -128t126 -52q76 0 128 52t52 128v1178q0 37 -14 68.5t-39 56t-57.5 39t-69.5 14.5h-280q-70 0 -118 -48t-48 -118z" />
<glyph unicode="2" horiz-adv-x="1200" d="M41 993q0 -74 52 -126t126 -52t127 52.5t53 125.5q0 53 17.5 97.5t45 75t64.5 47t78 16.5q82 0 140.5 -55.5t58.5 -137.5q0 -57 -22.5 -96t-63.5 -80l-596 -575q-23 -20 -36 -51t-13 -68q0 -70 48 -118t118 -48h749q70 0 119 48t49 118t-49 118t-119 48h-338l287 268 q104 96 163.5 202.5t59.5 223.5q0 113 -44 211t-118.5 170t-175 114t-213.5 42q-117 0 -220 -45t-180 -123t-122 -181.5t-45 -220.5z" />
<glyph unicode="3" horiz-adv-x="1214" d="M41 494q0 -86 42 -178.5t115.5 -168t177 -125t226.5 -49.5q117 0 220.5 43t182 119t124 178.5t45.5 218.5q0 92 -28 158t-63.5 107t-70.5 62.5t-51 27.5q33 18 56 46t37.5 61.5t21.5 70.5t7 70q0 92 -38.5 169.5t-103 135t-150.5 90.5t-179 33q-88 0 -172 -26t-150.5 -75 t-106.5 -119.5t-40 -158.5q0 -37 13.5 -71t37 -60.5t56.5 -43t69 -16.5q61 0 112 34t63 85q10 47 39.5 77t76.5 30t80 -35t33 -82q0 -39 -13.5 -60.5t-34 -35t-44 -22.5t-44 -24.5t-33.5 -40t-13 -67.5t20.5 -65.5t51 -38t65.5 -28.5t65.5 -35.5t51 -62.5t20.5 -108 q0 -41 -16.5 -79t-44 -65.5t-64.5 -44t-80 -16.5t-79.5 16.5t-64.5 44t-44 65.5t-16 79q0 37 -15.5 70.5t-41 59.5t-60.5 40t-72 14q-74 0 -125 -54t-51 -130v-20z" />
<glyph unicode="4" horiz-adv-x="1347" d="M27 512q0 -74 52 -126t126 -52h563v-154q0 -76 52 -128t128 -52q74 0 126 52t52 128v154h41q63 0 108.5 44t45.5 109q0 63 -45 108.5t-109 45.5h-41v717q0 74 -52 126t-126 52h-231q-57 0 -95 -21.5t-53 -41.5l-477 -646q-41 -53 -53 -94t-12 -92v-129zM348 641l420 563 v-563h-420z" />
<glyph unicode="5" horiz-adv-x="1193" d="M41 385q0 -66 36 -138.5t101.5 -133t160.5 -100.5t212 -40q121 0 230.5 44t192.5 122t131 182.5t48 227.5q0 139 -48 245.5t-131 179.5t-192.5 110.5t-230.5 37.5h-70v97h457q33 0 61.5 12t50 33.5t34 51.5t12.5 62q0 66 -46 112t-112 46h-569q-59 0 -97.5 -16.5t-63 -43 t-36.5 -59.5t-16 -63l-56 -385q-4 -31 4.5 -60.5t29 -53.5t51 -39t73.5 -15h283q51 0 98 -20.5t81 -54.5t54.5 -80t20.5 -97q0 -47 -20.5 -87t-54.5 -68.5t-78 -44t-91 -15.5q-55 0 -90 16.5t-57.5 41t-39 52t-36 52t-46 41t-71.5 16.5q-70 0 -120 -49t-50 -119z" />
<glyph unicode="6" horiz-adv-x="1331" d="M41 573q0 -127 50 -235.5t135 -190t199 -128t241 -46.5q125 0 238.5 46.5t199.5 126t136 189t50 238.5q0 111 -39 207.5t-106.5 172t-157.5 126.5t-190 72l96 125q39 47 39 110q0 27 -10.5 59t-32 58.5t-55 44t-80.5 17.5q-41 0 -78 -17.5t-66 -52.5l-446 -571 q-66 -84 -94.5 -163t-28.5 -188zM399 573q0 55 20.5 103.5t57.5 85.5t85 57.5t104 20.5q55 0 103 -20.5t85 -57.5t57.5 -85t20.5 -104q0 -55 -20.5 -103t-57.5 -85t-85 -57.5t-103 -20.5t-103.5 20.5t-85.5 57.5t-57.5 85t-20.5 103z" />
<glyph unicode="7" horiz-adv-x="1150" d="M27 1370q0 -70 48 -118t118 -48h483l-414 -956q-14 -31 -14 -72q0 -49 18.5 -83t46 -54.5t58 -29.5t55.5 -9q51 0 96 26.5t68 77.5l524 1205q8 16 10 30.5t2 30.5q0 70 -48 118t-117 48h-768q-70 0 -118 -48t-48 -118z" />
<glyph unicode="8" horiz-adv-x="1200" d="M41 532q0 -117 44 -218t120 -177t177 -120t218 -44t218.5 44t177 120t119.5 177.5t44 217.5q0 117 -51 209.5t-117 151.5q10 12 25.5 30.5t30 46t24.5 64.5t10 82q0 94 -38.5 176t-105.5 142.5t-154 94.5t-183 34t-183 -34t-153.5 -94.5t-105.5 -142.5t-39 -176 q0 -45 10 -82t24.5 -64.5t30 -46t25.5 -30.5q-66 -59 -117 -151.5t-51 -209.5zM399 532q0 84 58.5 142.5t142.5 58.5q41 0 77 -15.5t63.5 -43t43 -64.5t15.5 -78t-15.5 -77.5t-43 -63t-63.5 -42t-77 -15.5q-84 0 -142.5 57.5t-58.5 140.5zM477 1116q0 51 36 87t87 36t87 -36 t36 -87t-36 -87t-87 -36t-87 36t-36 87z" />
<glyph unicode="9" horiz-adv-x="1331" d="M41 963q0 -111 39 -207.5t106.5 -172t157.5 -126.5t191 -72l-97 -125q-39 -47 -39 -110q0 -29 10.5 -60t32 -57.5t55 -44t81.5 -17.5q41 0 77.5 17.5t65.5 52.5l446 571q66 84 94.5 163t28.5 188q0 125 -50 234.5t-135 191t-198.5 128t-240.5 46.5t-240 -46.5t-199 -126 t-136 -189t-50 -238.5zM399 963q0 55 20.5 103t57.5 85t85 57.5t104 20.5q55 0 103 -20.5t85 -57.5t57.5 -85t20.5 -103t-20.5 -103.5t-57.5 -85.5t-85 -57.5t-103 -20.5t-103.5 20.5t-85.5 57.5t-57.5 85t-20.5 104z" />
<glyph unicode=":" horiz-adv-x="563" d="M82 201q0 -84 57.5 -142.5t141.5 -58.5t142 58.5t58 142.5q0 41 -15 76.5t-43 63.5t-64.5 43t-77.5 15t-78 -15t-63.5 -43t-42 -63.5t-15.5 -76.5zM82 842q0 -84 57.5 -142.5t141.5 -58.5t142 58.5t58 142.5q0 41 -15 76.5t-43 63.5t-64.5 43t-77.5 15t-78 -15t-63.5 -43 t-42 -63.5t-15.5 -76.5z" />
<glyph unicode=";" horiz-adv-x="563" d="M82 201q0 -61 31.5 -108.5t79.5 -69.5l-19 -43q-10 -25 -10 -41q0 -43 30.5 -74t73.5 -31q33 0 59.5 17.5t39.5 46.5l98 225q16 35 16 78q0 41 -15 76.5t-43 63.5t-64.5 43t-77.5 15t-78 -15t-63.5 -43t-42 -63.5t-15.5 -76.5zM82 842q0 -84 57.5 -142.5t141.5 -58.5 t142 58.5t58 142.5q0 41 -15 76.5t-43 63.5t-64.5 43t-77.5 15t-78 -15t-63.5 -43t-42 -63.5t-15.5 -76.5z" />
<glyph unicode="&#x3c;" horiz-adv-x="563" d="M25 768q0 -47 30 -80l275 -274q33 -33 80 -33q45 0 78.5 30.5t33.5 80.5q0 43 -33 79l-194 197l194 195q33 33 33 79q0 51 -34.5 82t-77.5 31q-47 0 -80 -33l-275 -274q-30 -31 -30 -80z" />
<glyph unicode="=" horiz-adv-x="765" d="M25 600q0 -47 32.5 -80t79.5 -33h492q47 0 79.5 33t32.5 80t-32.5 80t-79.5 33h-492q-47 0 -79.5 -33t-32.5 -80zM25 938q0 -47 32.5 -80t79.5 -33h492q47 0 79.5 33t32.5 80t-32.5 80t-79.5 33h-492q-47 0 -79.5 -33t-32.5 -80z" />
<glyph unicode="&#x3e;" horiz-adv-x="563" d="M41 492q0 -49 34 -80t79 -31q47 0 79 33l275 274q31 33 31 80q0 49 -31 80l-275 274q-33 33 -79 33q-43 0 -78 -30.5t-35 -82.5q0 -47 33 -79l194 -195l-194 -197q-33 -37 -33 -79z" />
<glyph unicode="?" horiz-adv-x="1161" d="M41 1085q0 -72 46 -113.5t106 -41.5q57 0 100 34.5t53 90.5q14 90 78 145t154 55q49 0 91 -18t74.5 -51t51 -75t18.5 -91t-18.5 -92t-51 -75t-74.5 -50.5t-91 -18.5q-63 0 -108.5 -45t-45.5 -108q0 -66 45 -110t109 -44q111 0 210 42t172.5 116t116.5 173t43 212t-43 211 t-116.5 172t-172 117t-210.5 43q-135 0 -235.5 -53.5t-168.5 -129t-100.5 -156.5t-32.5 -139zM377 201q0 -84 58.5 -142.5t142.5 -58.5t141 58.5t57 142.5q0 41 -15.5 76.5t-42 63.5t-63.5 43t-77 15q-41 0 -78 -15t-64.5 -43t-43 -63.5t-15.5 -76.5z" />
<glyph unicode="@" horiz-adv-x="1310" d="M41 768q0 -127 48 -238.5t132 -195.5t195.5 -132t238.5 -48q33 0 56.5 23.5t23.5 55.5q0 33 -23.5 56.5t-56.5 23.5q-94 0 -177 36t-145.5 97.5t-98 144.5t-35.5 177t35.5 177t98 145.5t145.5 98.5t177 36t177 -36t144.5 -97.5t97.5 -145.5t36 -178q0 -55 -12.5 -105.5 t-29.5 -88t-37.5 -61.5t-39.5 -24q-33 0 -42 20.5t-9 31.5v434q0 35 -23.5 57.5t-56.5 22.5q-29 0 -50.5 -18.5t-25.5 -39.5q-2 2 -13 11.5t-31.5 19.5t-49 18.5t-67.5 8.5q-47 0 -94.5 -21.5t-85 -59.5t-61.5 -91.5t-24 -114.5t24 -114.5t61.5 -91.5t84.5 -59.5t95 -21.5 q39 0 67.5 8.5t49 19.5t31.5 20.5t13 11.5v-11q0 -47 18.5 -83.5t48.5 -61.5t65.5 -38t70.5 -13q80 0 134.5 47t87 114.5t47 142.5t14.5 130q0 127 -48 239.5t-132 195.5t-196 131t-239 48t-239.5 -48t-195.5 -131t-131 -195.5t-48 -239.5zM516 768q0 55 39 93t94 38 q53 0 92 -38t39 -93q0 -53 -39 -92t-92 -39q-55 0 -94 39t-39 92z" />
<glyph unicode="A" horiz-adv-x="1499" d="M25 178q0 -49 18 -83t45 -55.5t57.5 -30.5t55.5 -9q51 0 96 27.5t65 76.5l74 175h629l72 -175q20 -49 65 -76.5t96 -27.5q74 0 125.5 51t51.5 127q0 37 -15 72l-534 1202q-47 111 -170 111q-119 0 -170 -111l-545 -1202q-16 -37 -16 -72zM567 586l189 448l184 -448h-373z " />
<glyph unicode="B" horiz-adv-x="1327" d="M94 178q0 -74 52.5 -126t125.5 -52h519q94 0 182 33t153.5 90t105.5 137t40 176q0 94 -26.5 165t-63.5 119t-75 75.5t-63 38.5q20 6 47 24.5t51.5 52t41 85t16.5 122.5q0 98 -36 176t-96 131.5t-140 82t-168 28.5h-488q-74 0 -126 -52t-52 -126v-1180zM453 334v301h305 q61 0 105 -44t44 -108q0 -61 -44 -105t-105 -44h-305zM453 942v262h268q53 0 92 -39t39 -92t-39 -92t-92 -39h-268z" />
<glyph unicode="C" horiz-adv-x="1544" d="M41 768q0 -164 62.5 -309.5t171 -253t252 -170t307.5 -62.5q199 0 354 71t260 198q41 51 41 110q0 37 -19.5 72t-49 62.5t-66.5 44t-70 16.5t-64.5 -16.5t-64.5 -55.5q-47 -53 -132 -97t-189 -44q-90 0 -169 33.5t-138.5 93t-93.5 138.5t-34 169t34 169t93.5 138.5 t138 94t169.5 34.5q51 0 99 -12t89 -32.5t74.5 -46.5t58.5 -52q61 -70 127 -70q23 0 57.5 12.5t68.5 36t57.5 60.5t23.5 86q0 57 -41 108q-104 127 -260 198t-354 71q-164 0 -307.5 -62.5t-252 -170t-171 -253t-62.5 -309.5z" />
<glyph unicode="D" horiz-adv-x="1517" d="M94 178q0 -74 52 -126t126 -52h482q154 0 287 62.5t229 168t151.5 244.5t55.5 293t-55.5 293t-151.5 244.5t-229.5 168t-286.5 62.5h-482q-74 0 -126 -52t-52 -126v-1180zM453 334v870h256q88 0 162.5 -35.5t130 -96t86 -139.5t30.5 -167t-31.5 -166t-87 -137.5t-130 -94 t-160.5 -34.5h-256z" />
<glyph unicode="E" horiz-adv-x="1171" d="M94 178q0 -74 52.5 -126t125.5 -52h693q70 0 117.5 48t47.5 118t-48 118t-117 48h-512v303h393q66 0 109.5 45t43.5 108t-44 108.5t-109 45.5h-393v262h512q70 0 117.5 48t47.5 118t-48 118t-117 48h-693q-74 0 -126 -52t-52 -126v-1180z" />
<glyph unicode="F" horiz-adv-x="1171" d="M94 180q0 -76 52.5 -128t125.5 -52q76 0 128.5 52t52.5 128v455h393q66 0 109.5 45t43.5 108t-44 108.5t-109 45.5h-393v262h512q70 0 117.5 48t47.5 118t-48 118t-117 48h-693q-74 0 -126 -52t-52 -126v-1178z" />
<glyph unicode="G" horiz-adv-x="1525" d="M41 768q0 -164 62.5 -309.5t171 -253t252 -170t307.5 -62.5q96 0 183 21.5t162.5 58.5t138 86t112.5 105q35 39 45 72.5t10 80.5v312q0 37 -14.5 69.5t-39 57t-57.5 39t-69 14.5h-453q-66 0 -112 -47t-46 -113t46 -112t112 -46h274v-77q0 -35 -27.5 -64t-69.5 -50.5 t-94 -33.5t-101 -12q-90 0 -169 33.5t-137.5 93t-93.5 138.5t-35 169t34 169t93.5 138.5t138 94t169.5 34.5q82 0 151.5 -27.5t112.5 -62.5q49 -41 106 -41q33 0 64.5 15.5t58.5 41t43 61.5t16 77q0 35 -13 65.5t-42 52.5q-90 72 -216 124.5t-281 52.5q-164 0 -307.5 -62.5 t-252 -170t-171 -253t-62.5 -309.5z" />
<glyph unicode="H" horiz-adv-x="1468" d="M94 180q0 -76 52.5 -128t125.5 -52q76 0 128.5 52t52.5 128v434h563v-434q0 -76 52 -128t126 -52q76 0 128 52t52 128v1178q0 74 -52 126t-128 52q-74 0 -126 -52t-52 -126v-410h-563v410q0 74 -52.5 126t-128.5 52q-74 0 -126 -52t-52 -126v-1178z" />
<glyph unicode="I" horiz-adv-x="546" d="M94 180q0 -76 52.5 -128t125.5 -52q76 0 128.5 52t52.5 128v1178q0 74 -52.5 126t-128.5 52q-74 0 -126 -52t-52 -126v-1178z" />
<glyph unicode="J" horiz-adv-x="1296" d="M25 563q0 -121 46 -228.5t125.5 -187t187.5 -127t228 -47.5q123 0 230.5 47.5t187.5 127t126 187t46 228.5v795q0 74 -53 126t-127 52t-126 -52t-52 -126v-795q0 -47 -18.5 -89t-50.5 -72.5t-74 -49t-89 -18.5t-89 18.5t-72.5 49t-49 72.5t-18.5 89q0 74 -53.5 126 t-126.5 52q-74 0 -126 -52t-52 -126z" />
<glyph unicode="K" horiz-adv-x="1382" d="M94 180q0 -76 52.5 -128t125.5 -52q76 0 128.5 52t52.5 128v471l598 -600q51 -51 127 -51q49 0 82.5 18.5t55 45t32 58.5t10.5 58q0 35 -13.5 68t-39.5 57l-510 486l465 438q27 25 40 57.5t13 67.5q0 43 -16.5 77.5t-43 57t-58.5 35t-62 12.5q-74 0 -127 -53l-553 -553 v428q0 74 -52.5 126t-128.5 52q-74 0 -126 -52t-52 -126v-1178z" />
<glyph unicode="L" horiz-adv-x="1101" d="M94 178q0 -74 52.5 -126t125.5 -52h639q68 0 117 48t49 118t-49 118t-117 48h-458v1026q0 74 -52.5 126t-128.5 52q-74 0 -126 -52t-52 -126v-1180z" />
<glyph unicode="M" horiz-adv-x="1845" d="M41 178q0 -37 14.5 -68.5t38 -56t56 -39t69.5 -14.5q59 0 108.5 38t65.5 97l154 608l227 -626q18 -53 56 -85t94 -32q55 0 93 31.5t56 85.5l227 626l152 -608q16 -59 66.5 -97t109.5 -38q47 0 80 17.5t54.5 45t31.5 58.5t10 59v21q0 10 -4 20l-295 1180q-16 59 -60 97 t-112 38q-53 0 -100 -33t-68 -86l-241 -663l-242 663q-20 53 -67.5 86t-100.5 33q-68 0 -112 -38t-60 -97l-295 -1180q-6 -23 -6 -43z" />
<glyph unicode="N" horiz-adv-x="1509" d="M94 180q0 -76 52.5 -128t125.5 -52q76 0 128.5 52t52.5 128v717l641 -825q23 -29 58.5 -50.5t82.5 -21.5q76 0 128 52t52 128v1178q0 74 -52 126t-128 52q-74 0 -126 -52t-52 -126v-715l-645 827q-23 27 -59 46.5t-81 19.5q-74 0 -126 -52t-52 -126v-1178z" />
<glyph unicode="O" d="M41 768q0 -164 62.5 -309.5t170 -253t252 -170t308.5 -62.5t309 62.5t252.5 170t170 253t62.5 309.5t-62.5 309.5t-170 253t-253 170t-308.5 62.5q-164 0 -308.5 -62.5t-252 -170t-170 -253t-62.5 -309.5zM399 768q0 90 34 169t93.5 138.5t138 94t169.5 34.5 q90 0 169.5 -34.5t139 -94t93.5 -138.5t34 -169t-34 -169t-93.5 -138.5t-139 -93t-169.5 -33.5t-169 33.5t-138.5 93t-93.5 138.5t-34 169z" />
<glyph unicode="P" horiz-adv-x="1265" d="M94 180q0 -76 52.5 -128t125.5 -52q76 0 128.5 52t52.5 128v256h223q113 0 213 43t175 118t118 174t43 214t-43 215t-118 175t-175.5 118t-212.5 43h-404q-74 0 -126 -52t-52 -126v-1178zM453 768v436h196q45 0 85 -17.5t68.5 -47t46 -69.5t17.5 -85t-17.5 -84t-46 -68.5 t-68.5 -47t-85 -17.5h-196z" />
<glyph unicode="Q" horiz-adv-x="1751" d="M41 768q0 -164 62.5 -309.5t170 -253t252 -170t308.5 -62.5q143 0 257.5 43t206.5 111l119 -115q27 -25 58.5 -37t66.5 -12q49 0 81 17.5t51.5 44t27.5 55.5t8 53q0 72 -53 125l-129 125q43 78 71.5 173t28.5 212q0 164 -62.5 309.5t-170 253t-253 170t-308.5 62.5 q-164 0 -308.5 -62.5t-252 -170t-170 -253t-62.5 -309.5zM399 768q0 90 34 169t93.5 138.5t138 94t169.5 34.5q90 0 169.5 -34.5t139 -94t93.5 -138.5t34 -169t-34 -169t-93.5 -138.5t-139 -93t-169.5 -33.5t-169 33.5t-138.5 93t-93.5 138.5t-34 169z" />
<glyph unicode="R" horiz-adv-x="1284" d="M94 180q0 -76 52.5 -128t125.5 -52q76 0 128.5 52t52.5 128v260h20l465 -399q25 -23 55.5 -32t61.5 -9q43 0 75.5 16.5t54 43t33 56t11.5 58.5q0 37 -15.5 72t-46.5 59l-290 234q168 59 256 172.5t88 273.5q0 113 -43 213t-119 176t-176.5 119t-212.5 43h-398 q-74 0 -126 -52t-52 -126v-1178zM453 768v436h213q45 0 83.5 -17.5t68.5 -47t47.5 -69.5t17.5 -85t-17.5 -84t-47.5 -68.5t-68.5 -47t-83.5 -17.5h-213z" />
<glyph unicode="S" horiz-adv-x="1261" d="M59 346q0 -72 49.5 -138.5t128 -118.5t178 -84t199.5 -32q121 0 228.5 30t188.5 93.5t128 160.5t47 232q0 96 -31.5 168t-86 125.5t-128 90t-157.5 61.5l-182 55q-47 14 -77 30.5t-46.5 33t-22.5 36t-6 39.5q0 63 51 105.5t117 42.5q37 0 71.5 -12.5t65.5 -31t55.5 -38.5 t40.5 -37q23 -23 59 -37t75 -14q53 0 97 36t44 124q0 55 -37 108t-103.5 95t-158.5 68t-203 26q-106 0 -202.5 -27t-170 -83t-116.5 -143t-43 -206q0 -84 31.5 -149.5t85 -114.5t124 -84t148.5 -60l174 -53q68 -23 121 -62.5t53 -103.5q0 -20 -10.5 -49t-33 -55.5t-59 -46 t-90.5 -19.5q-80 0 -137 33t-103 73t-88 72.5t-96 32.5q-72 0 -122 -50t-50 -122z" />
<glyph unicode="T" horiz-adv-x="1353" d="M27 1370q0 -70 48 -118t118 -48h305v-1024q0 -76 52 -128t126 -52t127 52t53 128v1024h303q70 0 119 48t49 118t-49 118t-119 48h-966q-70 0 -118 -48t-48 -118z" />
<glyph unicode="U" horiz-adv-x="1441" d="M94 602q0 -129 49.5 -243.5t134 -200.5t199.5 -135.5t244 -49.5t243.5 49.5t199.5 135.5t134.5 200.5t49.5 243.5v756q0 74 -52.5 126t-126.5 52t-127 -52t-53 -126v-756q0 -55 -21.5 -104t-57.5 -85t-85 -57.5t-104 -21.5t-104.5 21.5t-85 57.5t-57 85t-21.5 104v756 q0 74 -52.5 126t-128.5 52q-74 0 -126 -52t-52 -126v-756z" />
<glyph unicode="V" horiz-adv-x="1441" d="M25 1356q0 -37 14 -72l518 -1171q23 -53 64 -83t100 -30t100 30t64 83l518 1171q14 35 14 72q0 45 -15.5 78.5t-41 56t-57 34t-64.5 11.5q-53 0 -98 -27.5t-66 -78.5l-354 -887l-356 887q-20 51 -64.5 78.5t-97.5 27.5q-47 0 -80 -17.5t-55.5 -43t-32.5 -57.5t-10 -62z " />
<glyph unicode="W" horiz-adv-x="2043" d="M25 1356q0 -31 8 -56l370 -1177q18 -57 61.5 -90t102.5 -33t102.5 31.5t63.5 89.5l289 813l289 -813q20 -57 63 -89t103 -32q59 0 102 33t61 90l371 1177q8 25 8 56q0 29 -11 60.5t-32.5 58t-55.5 44t-79 17.5q-59 0 -106 -34t-64 -91l-211 -749l-266 751 q-20 59 -65.5 91t-106.5 32t-105.5 -31.5t-66.5 -91.5l-266 -751l-211 749q-16 57 -63.5 91t-106.5 34q-45 0 -79 -17.5t-55.5 -44t-32.5 -58.5t-11 -60z" />
<glyph unicode="X" horiz-adv-x="1366" d="M41 180q0 -31 11 -62.5t32.5 -57t55.5 -43t79 -17.5q41 0 79 17.5t64 52.5l322 424l320 -424q27 -35 64.5 -52.5t78.5 -17.5q31 0 62.5 11.5t57 34t42 56t16.5 78.5q0 29 -8 56.5t-27 50.5l-383 504l348 458q18 23 26.5 50.5t8.5 56.5q0 51 -18.5 86t-46 55.5t-58 29.5 t-55.5 9q-41 0 -79 -18.5t-64 -53.5l-285 -377l-287 377q-27 35 -63.5 53.5t-77.5 18.5q-29 0 -59.5 -10t-58 -33t-45 -56.5t-17.5 -80.5q0 -59 35 -107l348 -458l-383 -504q-35 -47 -35 -107z" />
<glyph unicode="Y" horiz-adv-x="1327" d="M25 1356q0 -55 30 -101l430 -620v-455q0 -76 52.5 -128t126.5 -52t127 52t53 128v455l428 620q31 45 31 101q0 43 -16.5 76.5t-42 57t-57.5 35t-63 11.5q-43 0 -81.5 -19.5t-65.5 -58.5l-313 -450l-314 450q-27 39 -65.5 58.5t-81.5 19.5q-31 0 -62.5 -11.5t-57.5 -35 t-42 -57t-16 -76.5z" />
<glyph unicode="Z" horiz-adv-x="1409" d="M94 166q0 -70 49.5 -118t116.5 -48h928q70 0 118 48t48 118t-48.5 118t-117.5 48h-586l694 940q16 23 24.5 45t8.5 53q0 70 -49 118t-119 48h-887q-70 0 -119 -48t-49 -118t49.5 -118t118.5 -48h539l-684 -936q-16 -23 -25.5 -46t-9.5 -56z" />
<glyph unicode="[" horiz-adv-x="720" d="M94 0q0 -63 24.5 -119.5t65.5 -97.5t97.5 -65.5t119.5 -24.5h123q59 0 100.5 41t41.5 100q0 57 -41 98t-101 41h-49q-41 0 -69.5 29t-28.5 70v1392q0 41 28.5 70t69.5 29h49q59 0 100.5 41t41.5 98q0 59 -41 100t-101 41h-123q-63 0 -119.5 -24.5t-97.5 -65.5 t-65.5 -97.5t-24.5 -119.5v-1536z" />
<glyph unicode="\" horiz-adv-x="1396" d="M25 1470q0 -57 36 -102l1014 -1305q25 -33 59.5 -49t71.5 -16q31 0 60.5 12.5t53 34t38 53t14.5 68.5q0 55 -35 102l-1013 1305q-25 31 -60 47t-71 16q-25 0 -54.5 -9t-54.5 -29.5t-42 -51t-17 -76.5z" />
<glyph unicode="]" horiz-adv-x="706" d="M41 -166q0 -59 41 -100t100 -41h123q63 0 119.5 24.5t97.5 65.5t65.5 97.5t24.5 119.5v1536q0 63 -24.5 119.5t-65.5 97.5t-97 65.5t-120 24.5h-123q-59 0 -100 -41t-41 -100q0 -57 41 -98t100 -41h49q41 0 70 -29t29 -70v-1392q0 -41 -29 -70t-70 -29h-49 q-59 0 -100 -41t-41 -98z" />
<glyph unicode="^" horiz-adv-x="573" d="M41 1313q0 -31 22.5 -53.5t53.5 -22.5q27 0 53 23l117 114l114 -114q23 -23 54 -23t54 22.5t23 53.5q0 33 -22 55l-166 168q-27 27 -57 27q-31 0 -58 -27l-168 -168q-20 -20 -20 -55z" />
<glyph unicode="_" horiz-adv-x="1118" d="M0 -266q0 -72 10 -92.5t29 -20.5h1149q18 0 28.5 20.5t10.5 92.5t-10.5 92t-28.5 20h-1149q-18 0 -28.5 -20.5t-10.5 -91.5z" />
<glyph unicode="`" horiz-adv-x="452" d="M41 1397q0 -25 9 -47.5t32 -36.5l201 -129q31 -20 61 -21q29 0 48.5 19.5t19.5 48.5t-21 63l-129 201q-14 23 -36.5 32t-45.5 9q-59 0 -99 -40t-40 -99z" />
<glyph unicode="a" horiz-adv-x="1282" d="M41 573q0 -125 47 -229t122 -181t170 -120t191 -43q76 0 133.5 16.5t97.5 38t62.5 40t28.5 22.5q10 -43 53 -80t98 -37q66 0 112 47t46 113v829q0 66 -46 112t-112 46q-55 0 -98 -37t-53 -80q-6 4 -28.5 22.5t-62.5 40t-97.5 38t-133.5 16.5q-96 0 -191 -43t-170 -119 t-122 -181.5t-47 -230.5zM358 573q0 55 20.5 103.5t56.5 84.5t84.5 56.5t103.5 20.5t102 -20.5t83 -56.5t56.5 -84t20.5 -104q0 -55 -20.5 -103t-56.5 -84t-83 -56.5t-102 -20.5t-103.5 20.5t-84.5 56.5t-56.5 84t-20.5 103z" />
<glyph unicode="b" horiz-adv-x="1296" d="M94 160q0 -33 12.5 -62.5t34 -51t50 -34t61.5 -12.5q57 0 99 37t52 80q6 -4 29 -22.5t63 -40t97 -38t135 -16.5q96 0 190.5 43t170 120t121.5 181.5t46 228.5q0 125 -46 230.5t-121.5 181.5t-170 119t-190.5 43q-74 0 -127 -16.5t-89 -36t-56.5 -36t-30.5 -16.5 q-12 0 -12 43v293q0 33 -12.5 61.5t-34 50t-51 34t-62.5 12.5q-66 0 -112 -46t-46 -112v-1218zM412 573q0 55 20.5 103.5t56 84.5t84 56.5t103.5 20.5t102 -20.5t83 -56.5t56.5 -84.5t20.5 -103.5t-20.5 -103t-56.5 -84t-83 -56.5t-102 -20.5t-103.5 20.5t-84 56.5t-56 84 t-20.5 103z" />
<glyph unicode="c" horiz-adv-x="1130" d="M41 573q0 -129 46 -236.5t126 -185t186.5 -120.5t227.5 -43q127 0 227 43t166 102q37 35 53.5 69t16.5 66q0 61 -48.5 104.5t-111.5 43.5q-47 0 -76 -18.5t-57.5 -42t-66.5 -42t-103 -18.5q-57 0 -108.5 21.5t-89.5 59.5t-59.5 89t-21.5 108t21.5 108.5t59.5 89.5 t89 59.5t109 21.5q61 0 100 -18.5t69.5 -41t60.5 -41t73 -18.5q63 0 111.5 42t48.5 104q0 33 -16.5 66.5t-53.5 68.5q-66 59 -166 102t-227 43q-121 0 -227.5 -43t-186.5 -120.5t-126 -185.5t-46 -237z" />
<glyph unicode="d" horiz-adv-x="1296" d="M41 573q0 -125 47 -229t122 -181t170 -120t191 -43q76 0 133.5 16.5t97.5 38t62.5 40t28.5 22.5q10 -43 53 -80t98 -37q66 0 112 47t46 113v1218q0 66 -46 112t-112 46q-33 0 -62.5 -12.5t-51 -34t-33.5 -50t-12 -61.5v-293q0 -43 -13 -43q-10 0 -30.5 16.5t-56 36 t-88 36t-126.5 16.5q-96 0 -191 -43t-170 -119t-122 -181.5t-47 -230.5zM358 573q0 55 20.5 103.5t56.5 84.5t84.5 56.5t103.5 20.5t102 -20.5t83 -56.5t56.5 -84t20.5 -104q0 -55 -20.5 -103t-56.5 -84t-83 -56.5t-102 -20.5t-103.5 20.5t-84.5 56.5t-56.5 84t-20.5 103z " />
<glyph unicode="e" horiz-adv-x="1159" d="M41 573q0 -129 46 -236.5t126 -185t186.5 -120.5t227.5 -43q123 0 225 42t168 103q47 47 47 107q0 33 -13.5 62.5t-36 52t-52 37t-60.5 14.5q-41 0 -64.5 -17.5t-49 -38t-62.5 -38t-102 -17.5q-23 0 -51.5 6t-53 15.5t-41 20.5t-16.5 23q0 15 29 27l534 223 q47 18 68.5 56.5t21.5 89.5q0 92 -42 165.5t-110.5 127t-157.5 82t-181 28.5q-121 0 -227.5 -43t-186.5 -120.5t-126 -185.5t-46 -237zM367 643q0 31 19.5 68t54 67.5t81.5 52t105 21.5q59 0 102 -18.5t43 -40.5q0 -16 -29 -29l-331 -139q-12 -4 -21 -4q-10 0 -17 5t-7 17z " />
<glyph unicode="f" horiz-adv-x="843" d="M41 981q0 -59 41 -100t100 -41h2v-682q0 -66 46 -112t112 -46q33 0 62.5 12.5t51 34t34 50t12.5 61.5v682h94q59 0 100 41t41 100t-41 100t-100 41h-94v52q0 29 7 48t34 19q20 0 39.5 -8t38 -17.5t34 -16.5t31.5 -7q47 0 82 43t35 96t-26.5 93t-68.5 68t-93.5 42 t-102.5 14q-84 0 -145.5 -28.5t-102.5 -78.5t-60.5 -119t-19.5 -148v-52h-2q-59 0 -100 -41t-41 -100z" />
<glyph unicode="g" horiz-adv-x="1282" d="M41 573q0 -125 47 -229t122 -181t170 -120t191 -43q74 0 126.5 16.5t88 36t56 35.5t30.5 16q12 0 13 -43v-22q0 -57 -27 -101t-66.5 -74t-87 -45.5t-88.5 -15.5q-61 0 -107 21.5t-85 47.5t-74 47.5t-74 21.5q-33 0 -62.5 -12.5t-52 -34t-35.5 -51t-13 -62.5 q0 -68 48 -120t118.5 -89t153.5 -56.5t155 -19.5q113 0 222.5 37t196.5 107.5t141 171t54 227.5v950q0 66 -46 112t-112 46q-55 0 -98 -37t-53 -80q-6 4 -28.5 22.5t-62.5 40t-97.5 38t-133.5 16.5q-96 0 -191 -43t-170 -119t-122 -181.5t-47 -230.5zM358 573 q0 55 20.5 103.5t56.5 84.5t84 56.5t104 20.5q55 0 102 -20.5t83 -56.5t56.5 -84t20.5 -104q0 -55 -20.5 -103t-56.5 -84t-83 -56.5t-102 -20.5t-103.5 20.5t-84.5 56.5t-56.5 84t-20.5 103z" />
<glyph unicode="h" horiz-adv-x="1167" d="M94 160q0 -33 12.5 -62.5t34 -51t50 -34t61.5 -12.5q66 0 113 47t47 113v491q0 74 52 126t126 52q76 0 128 -52t52 -126v-491q0 -33 12.5 -62.5t34 -51t50 -34t61.5 -12.5q66 0 112.5 47t46.5 113v491q0 102 -39.5 192.5t-107.5 158t-158 106.5t-192 39q-53 0 -91 -11 t-87 -40v282q0 33 -12.5 61.5t-34 50t-51 34t-62.5 12.5q-66 0 -112 -46t-46 -112v-1218z" />
<glyph unicode="i" horiz-adv-x="477" d="M68 1378q0 -72 49 -122t121 -50t122 50.5t50 121.5q0 72 -50.5 121t-121.5 49q-72 0 -121 -49t-49 -121zM80 160q0 -33 12 -62.5t33.5 -51t50.5 -34t62 -12.5q66 0 112.5 47t46.5 113v829q0 33 -12 61.5t-33.5 50t-51.5 34t-62 12.5q-66 0 -112 -46t-46 -112v-829z" />
<glyph unicode="j" horiz-adv-x="487" d="M-137 -340q0 -66 48 -99.5t116 -33.5q76 0 143.5 29.5t117.5 88t78.5 147.5t28.5 208v989q0 33 -12 61.5t-33.5 50t-51.5 34t-62 12.5q-66 0 -112 -46t-46 -112v-989q0 -57 -16.5 -89t-40 -53.5t-51 -34.5t-51 -32.5t-40 -49.5t-16.5 -81zM66 1378q0 -72 49 -122t121 -50 t122 50.5t50 121.5q0 72 -50.5 121t-121.5 49q-72 0 -121 -49t-49 -121z" />
<glyph unicode="k" horiz-adv-x="1132" d="M94 160q0 -33 12.5 -62.5t34 -51t50 -34t61.5 -12.5q66 0 113 47t47 113v311l385 -414q27 -29 62.5 -43t70.5 -14q23 0 49.5 8t49 26.5t37.5 49.5t15 74q0 31 -11 61.5t-36 52.5l-356 344l360 256q29 20 41.5 51t12.5 64q0 43 -16.5 74t-40 50t-50.5 27.5t-49 8.5 q-55 0 -100 -37l-424 -340v608q0 33 -12.5 61.5t-34 50t-51 34t-62.5 12.5q-66 0 -112 -46t-46 -112v-1218z" />
<glyph unicode="l" horiz-adv-x="505" d="M94 160q0 -33 12.5 -62.5t34 -51t50 -34t61.5 -12.5q66 0 113 47t47 113v1218q0 33 -12.5 61.5t-34 50t-51 34t-62.5 12.5q-66 0 -112 -46t-46 -112v-1218z" />
<glyph unicode="m" horiz-adv-x="1757" d="M80 160q0 -66 46 -113t112 -47t112.5 47t46.5 113v522q0 66 47.5 113t112.5 47q68 0 115 -47t47 -113v-522q0 -66 47 -113t113 -47q33 0 61.5 12.5t50 34t33.5 51t12 62.5v522q0 66 47 113t115 47q66 0 114 -47t48 -113v-522q0 -66 46 -113t112 -47t112.5 47t46.5 113 v522q0 98 -37.5 185t-102 151.5t-153 102.5t-186.5 38q-100 0 -181 -35t-138 -88q-59 53 -139.5 88t-182.5 35q-98 0 -185 -38t-151.5 -102.5t-102.5 -151.5t-38 -185v-522z" />
<glyph unicode="n" horiz-adv-x="1146" d="M80 160q0 -66 46 -113t112 -47t112.5 47t46.5 113v522q0 70 52.5 115t123.5 45q70 0 123.5 -45t53.5 -115v-522q0 -66 47 -113t112 -47q33 0 61.5 12.5t50 34t34 51t12.5 62.5v506q0 102 -39 192t-105.5 156.5t-157 105.5t-192.5 39t-192 -39t-156.5 -105.5 t-105.5 -156.5t-39 -192v-506z" />
<glyph unicode="o" horiz-adv-x="1253" d="M41 573q0 -129 46 -236.5t126 -185t186.5 -120.5t227.5 -43t227.5 43t186 120.5t125.5 185t46 236.5t-46 237t-125.5 185.5t-186 120.5t-227.5 43t-227.5 -43t-186.5 -120.5t-126 -185.5t-46 -237zM348 573q0 57 21.5 108.5t59.5 89.5t89 59.5t109 21.5q57 0 108 -21.5 t89 -59.5t59.5 -89t21.5 -109q0 -57 -21.5 -108t-59.5 -89t-89 -59.5t-108 -21.5t-108.5 21.5t-89.5 59.5t-59.5 89t-21.5 108z" />
<glyph unicode="p" horiz-adv-x="1296" d="M94 -231q0 -66 46 -112t112 -46q33 0 62.5 12t51 33.5t34 50.5t12.5 62v292q0 43 12 43q10 0 30.5 -16t56.5 -35.5t88 -36t126 -16.5q96 0 191.5 43t170 120t121.5 181.5t47 228.5q0 125 -47 230.5t-121.5 181.5t-170 119t-191.5 43q-76 0 -134.5 -16.5t-98 -38t-61 -40 t-28.5 -22.5q-10 43 -53 80t-98 37q-66 0 -112 -46t-46 -112v-1220zM412 573q0 55 20.5 103.5t56 84.5t82.5 56.5t103 20.5q55 0 103 -20.5t84 -56.5t56.5 -84.5t20.5 -103.5t-20.5 -103t-56.5 -84t-84 -56.5t-103 -20.5t-102.5 20.5t-83 56.5t-56 84t-20.5 103z" />
<glyph unicode="q" horiz-adv-x="1296" d="M41 573q0 -125 47 -229t122 -181t170 -120t191 -43q74 0 126.5 16.5t88 36t56 35.5t30.5 16q12 0 13 -43v-292q0 -33 12 -62t33.5 -50.5t51.5 -33.5t62 -12q66 0 112 46t46 112v1220q0 66 -46 112t-112 46q-55 0 -98 -37t-53 -80q-6 4 -28.5 22.5t-62.5 40t-97.5 38 t-133.5 16.5q-96 0 -191 -43t-170 -119t-122 -181.5t-47 -230.5zM358 573q0 55 20.5 103.5t56.5 84.5t84 56.5t104 20.5q55 0 102 -20.5t83 -56.5t56.5 -84t20.5 -104q0 -55 -20.5 -103t-56.5 -84t-83 -56.5t-102 -20.5t-103.5 20.5t-84.5 56.5t-56.5 84t-20.5 103z" />
<glyph unicode="r" horiz-adv-x="864" d="M80 160q0 -66 46 -113t112 -47t112.5 47t46.5 113v567q0 33 9.5 52.5t21.5 28.5t26.5 12t24.5 3q23 0 40.5 -9t35.5 -21.5t42 -21.5t58 -9q33 0 66 14.5t58.5 40t42 62t16.5 82.5q0 45 -18.5 80.5t-49.5 58t-69.5 35t-77.5 12.5q-41 0 -77 -11.5t-66.5 -26.5t-55.5 -30.5 t-39 -25.5q-16 37 -56 65.5t-91 28.5q-66 0 -112 -46t-46 -112v-829z" />
<glyph unicode="s" horiz-adv-x="1036" d="M51 293q0 -68 48 -123t120 -96t154 -63.5t149 -22.5q94 0 177 24.5t146.5 72.5t100.5 121t37 171q0 102 -40 164.5t-99.5 99.5t-129 56.5t-129 37t-99.5 41t-40 70.5q0 23 15.5 35t38.5 12q39 0 66.5 -15.5t56 -33t62.5 -32.5t83 -15q57 0 97 41t40 96q0 49 -29.5 90 t-83 70.5t-128 47t-164.5 17.5q-98 0 -170 -26.5t-120 -73.5t-70.5 -110.5t-22.5 -139.5q0 -96 40 -155.5t99 -97.5t130 -58.5t130 -39t99 -42t40 -62.5q0 -41 -38.5 -58t-79.5 -17q-47 0 -87 27.5t-78 60t-79 60.5t-86 28q-72 0 -114 -40t-42 -122z" />
<glyph unicode="t" horiz-adv-x="792" d="M41 1006q0 -57 41 -98.5t100 -41.5h37v-706q0 -66 47 -113t113 -47t112 47t46 113v706h75q57 0 98.5 41t41.5 99q0 59 -41 100t-99 41h-75v180q0 66 -46.5 112t-111.5 46q-33 0 -62.5 -12.5t-51 -34t-34 -50t-12.5 -61.5v-180h-37q-59 0 -100 -41t-41 -100z" />
<glyph unicode="u" horiz-adv-x="1146" d="M80 481q0 -102 39 -192t105.5 -156.5t156.5 -105.5t192 -39t192.5 39t157 105.5t105.5 156.5t39 192v508q0 66 -46 112t-112 46q-33 0 -62.5 -12.5t-51 -34t-33.5 -50t-12 -61.5v-522q0 -72 -53.5 -117t-123.5 -45q-72 0 -124 45t-52 117v522q0 33 -12 61.5t-33.5 50 t-51.5 34t-62 12.5q-66 0 -112 -46t-46 -112v-508z" />
<glyph unicode="v" horiz-adv-x="1136" d="M27 985q0 -35 14 -63l375 -830q23 -47 61.5 -69.5t91.5 -22.5q51 0 90 22.5t62 69.5l375 830q14 29 14 65q0 47 -17.5 78t-43 49.5t-53 25.5t-46.5 7q-45 0 -84 -25.5t-57 -68.5l-240 -572l-241 572q-18 43 -56.5 68.5t-83.5 25.5q-18 0 -45.5 -7t-53.5 -25.5t-44 -50.5 t-18 -79z" />
<glyph unicode="w" horiz-adv-x="1650" d="M27 987q0 -25 10 -55l307 -832q16 -47 51 -73.5t84 -26.5q119 0 158 98l186 480l195 -480q41 -98 149 -98q51 0 87 26.5t53 73.5l307 832q10 31 10 55q0 25 -9 52.5t-27.5 51t-48.5 40t-73 16.5q-49 0 -91 -27.5t-58 -77.5l-162 -507l-176 514q-16 51 -59.5 74.5 t-96.5 23.5t-93 -24.5t-56 -73.5l-178 -517l-162 510q-16 49 -58.5 77t-91.5 28q-43 0 -72.5 -16.5t-48 -40t-27.5 -51t-9 -52.5z" />
<glyph unicode="x" horiz-adv-x="1138" d="M41 158q0 -29 11 -56.5t31.5 -50t50.5 -37t67 -14.5q35 0 66.5 13.5t54.5 41.5l247 289l248 -289q23 -29 54.5 -42t66.5 -13t63.5 14.5t50 37t34 50t12.5 56.5q0 53 -39 102l-281 330l252 295q39 49 39 102q0 43 -16.5 74t-41 49t-52 27.5t-50.5 9.5q-35 0 -66.5 -14.5 t-54.5 -42.5l-219 -256l-219 256q-51 57 -121 57q-23 0 -50 -9.5t-52 -27.5t-41 -49t-16 -74q0 -53 39 -102l251 -295l-282 -330q-37 -43 -37 -102z" />
<glyph unicode="y" horiz-adv-x="1161" d="M-12 -156q0 -49 23.5 -87t62.5 -64.5t87 -39.5t97 -13q133 0 215 65.5t137 177.5l510 1035q14 31 15 67q0 37 -14.5 67.5t-37 51t-50 32t-56.5 11.5q-45 0 -83 -23.5t-58 -66.5l-261 -578l-247 578q-18 43 -57.5 66.5t-86.5 23.5q-41 0 -69.5 -15.5t-49 -38t-29.5 -51 t-9 -55.5q0 -33 16 -69l377 -781l-51 -110q-14 -31 -36 -50.5t-50 -19.5q-23 0 -37.5 6t-28.5 12.5t-32.5 12.5t-49.5 6q-61 0 -104 -44t-43 -106z" />
<glyph unicode="z" horiz-adv-x="1054" d="M41 172q0 -72 50 -122t122 -50h659q59 0 100.5 41t41.5 100q0 57 -41 98.5t-101 41.5h-383l480 585q23 27 32 50.5t9 58.5q0 72 -50.5 122t-121.5 50h-615q-59 0 -100 -41t-41 -100q0 -57 41 -98.5t100 -41.5h338l-481 -585q-23 -27 -31 -50.5t-8 -58.5z" />
<glyph unicode="{" horiz-adv-x="976" d="M55 557q0 -59 22.5 -110.5t60.5 -89.5t89.5 -60.5t110.5 -22.5h12v-274q0 -63 24.5 -119.5t65.5 -97.5t97.5 -65.5t119.5 -24.5h123q59 0 100.5 41t41.5 100q0 57 -41 98t-101 41h-49q-41 0 -69.5 29t-28.5 70v485h-139q-59 0 -100.5 41t-41.5 100v140q0 59 41 100 t101 41h139v485q0 41 28.5 70t69.5 29h49q59 0 100.5 41t41.5 98q0 59 -41 100t-101 41h-123q-63 0 -119.5 -24.5t-97.5 -65.5t-65.5 -97.5t-24.5 -119.5v-274h-12q-59 0 -110.5 -22.5t-89.5 -60.5t-60.5 -90.5t-22.5 -109.5v-422z" />
<glyph unicode="|" horiz-adv-x="468" d="M94 -512q0 -59 41 -100t101 -41q57 0 98 41t41 100v2048q0 59 -41 100t-98 41q-59 0 -100.5 -41t-41.5 -100v-2048z" />
<glyph unicode="}" horiz-adv-x="976" d="M55 -166q0 -59 41 -100t101 -41h122q63 0 120 24.5t98 65.5t65.5 97.5t24.5 119.5v274h12q57 0 109.5 22.5t90.5 60.5t60.5 89.5t22.5 110.5v422q0 57 -22.5 109.5t-60.5 90.5t-90.5 60.5t-109.5 22.5h-12v274q0 63 -24.5 119.5t-65.5 97.5t-97.5 65.5t-120.5 24.5h-122 q-59 0 -100.5 -41t-41.5 -100q0 -57 41 -98t101 -41h49q41 0 69.5 -29t28.5 -70v-485h139q59 0 100.5 -41t41.5 -100v-140q0 -59 -41 -100t-101 -41h-139v-485q0 -41 -28.5 -70t-69.5 -29h-49q-59 0 -100.5 -41t-41.5 -98z" />
<glyph unicode="~" horiz-adv-x="1003" d="M41 1292q0 -31 21.5 -53t54.5 -22t55.5 22.5t22.5 52.5q0 47 33.5 82t80.5 35t81 -35t34 -82q0 -63 21.5 -112.5t57.5 -84t85 -53t104 -18.5t104.5 21.5t86.5 57.5t58.5 85t21.5 104q0 33 -22.5 55.5t-55.5 22.5t-54.5 -22.5t-21.5 -55.5q0 -47 -35 -80.5t-82 -33.5 t-80.5 33.5t-33.5 80.5q0 63 -21.5 113.5t-57.5 85.5t-85 53.5t-105 18.5q-55 0 -104 -21.5t-85 -58.5t-57.5 -86t-21.5 -105z" />
<glyph unicode="&#xa1;" horiz-adv-x="587" d="M94 1337q0 -84 57.5 -142t141.5 -58t142.5 58t58.5 142q0 41 -15.5 77t-43 63.5t-64.5 43t-78 15.5t-78 -15.5t-63.5 -43t-42 -63.5t-15.5 -77zM127 166q0 -68 48 -117t118 -49t118 49t48 117v717q0 70 -48.5 119t-117.5 49q-70 0 -118 -49t-48 -119v-717z" />
<glyph unicode="&#xa2;" horiz-adv-x="1130" d="M41 768q0 -129 40 -227.5t104.5 -169t148.5 -114.5t170 -62v-21q0 -51 35.5 -87t87.5 -36q51 0 87 36t36 87v21q55 12 129.5 42.5t140.5 90.5q37 35 53.5 68.5t16.5 66.5q0 61 -48.5 104t-111.5 43q-47 0 -76 -18.5t-56.5 -42t-65.5 -42t-105 -18.5q-57 0 -108.5 21.5 t-89.5 59.5t-59.5 89.5t-21.5 108.5t21.5 108.5t59.5 89.5t89 59.5t109 21.5q63 0 102 -18.5t68.5 -41t59.5 -41t73 -18.5q63 0 111.5 42t48.5 103q0 33 -16.5 67t-53.5 68q-66 61 -140.5 91t-129.5 44v19q0 51 -36 87t-87 36t-87 -36t-36 -87v-21q-84 -18 -166 -61 t-148.5 -113.5t-107.5 -170t-41 -228.5z" />
<glyph unicode="&#xa3;" horiz-adv-x="1341" d="M41 754q0 -70 48 -119t118 -49h53q-12 -61 -31.5 -113.5t-38 -100.5t-33 -94.5t-14.5 -93.5q0 -92 51.5 -138t127.5 -46h811q70 0 118.5 48t48.5 118t-49 118t-118 48h-609q27 55 46.5 115.5t33.5 138.5h51q68 0 117 49t49 119q0 68 -49 117t-117 49h-80q-8 14 -15 50 t-7 68q0 31 10 63t31.5 57.5t55.5 42t81 16.5q51 0 86 -20.5t56.5 -52.5t29.5 -70t8 -73q0 -74 52.5 -127t126.5 -53t127 55.5t53 178.5q0 90 -38 180t-107.5 162.5t-170 119t-223.5 46.5q-119 0 -218 -42t-171 -113t-112 -166t-40 -200q0 -39 9.5 -70.5t15.5 -51.5h-8 q-70 0 -118 -49.5t-48 -116.5z" />
<glyph unicode="&#xa4;" horiz-adv-x="1224" d="M41 115q0 -37 28.5 -66t65.5 -29q39 0 68 29l184 184q47 -31 104.5 -48t120.5 -17t121 17.5t107 47.5l182 -184q29 -29 68 -29q37 0 65.5 29t28.5 66q0 39 -29 67l-184 185q31 49 48 106t17 119q0 61 -17.5 118.5t-47.5 106.5l184 184q29 29 29 68q0 37 -29 65.5 t-65 28.5q-39 0 -68 -28l-184 -185q-47 31 -104.5 48.5t-121.5 17.5q-61 0 -118.5 -17.5t-106.5 -48.5l-184 185q-29 29 -68 28q-37 0 -65.5 -28.5t-28.5 -65.5q0 -39 29 -68l184 -184q-31 -47 -48.5 -104.5t-17.5 -120.5q0 -61 17.5 -118.5t48.5 -106.5l-184 -185 q-29 -29 -29 -67zM377 592q0 49 18.5 92t50 75t74.5 50t92 18t92.5 -18t75 -50t50 -75t18.5 -92t-18.5 -92t-50 -75t-74.5 -50.5t-93 -18.5q-49 0 -92 18.5t-74.5 50.5t-50 75t-18.5 92z" />
<glyph unicode="&#xa5;" horiz-adv-x="1327" d="M25 1358q0 -57 30 -103l219 -317h-32q-47 0 -80 -33t-33 -80t33 -79.5t80 -32.5h190l53 -78v-76h-116q-47 0 -80 -32.5t-33 -80.5q0 -47 33 -79.5t80 -32.5h116v-154q0 -76 52.5 -128t126.5 -52t127 52t53 128v154h114q47 0 80 32.5t33 79.5t-32.5 80t-80.5 33h-114v76 l53 78h188q47 0 80 32.5t33 79.5t-32.5 80t-80.5 33h-32l219 317q31 45 31 103q0 74 -52.5 126t-126.5 52q-43 0 -81.5 -19.5t-65.5 -58.5l-313 -450l-314 450q-27 39 -65.5 58.5t-81.5 19.5q-74 0 -126 -52t-52 -126z" />
<glyph unicode="&#xa6;" horiz-adv-x="505" d="M94 160q0 -33 12.5 -62.5t34 -51t50 -34t61.5 -12.5q66 0 113 47t47 113v370q0 33 -12.5 62t-34 50.5t-51 33.5t-62.5 12q-66 0 -112 -46t-46 -112v-370zM94 1008q0 -33 12.5 -63t34 -51.5t50 -33.5t61.5 -12q66 0 113 47t47 113v370q0 33 -12.5 61.5t-34 50t-51 34 t-62.5 12.5q-66 0 -112 -46t-46 -112v-370z" />
<glyph unicode="&#xa7;" horiz-adv-x="1261" d="M55 918q0 -76 36 -150t122 -125l473 -270q25 -14 34 -34t9 -50q0 -41 -24.5 -68.5t-73.5 -27.5q-53 0 -93 37.5t-40 95.5q0 41 -28 68.5t-69 27.5t-68.5 -27.5t-27.5 -68.5q0 -68 25.5 -127.5t69.5 -103.5t103.5 -69.5t127.5 -25.5q63 0 120.5 23.5t101.5 64.5t71.5 96 t29.5 121q68 14 115 48t78 78t45 93t14 92q0 86 -42 159t-113 114l-463 268q-29 16 -41 39t-12 51q0 39 27.5 67.5t68.5 28.5q51 0 92 -35.5t41 -97.5q0 -41 27.5 -68.5t68.5 -27.5t68.5 27.5t27.5 68.5q0 68 -25.5 127.5t-69.5 103.5t-103.5 69.5t-126.5 25.5 q-63 0 -120.5 -23.5t-101.5 -65.5t-72 -98.5t-30 -119.5q-68 -14 -115 -48t-77.5 -78t-45 -93t-14.5 -92zM295 918q0 33 21.5 55t54.5 22q12 0 21.5 -4t17.5 -8l522 -301q16 -10 25.5 -27.5t9.5 -38.5q0 -33 -21.5 -55t-54.5 -22q-20 0 -35 8l-522 303q-39 23 -39 68z" />
<glyph unicode="&#xa8;" horiz-adv-x="532" d="M41 1436q0 -41 28.5 -70t69.5 -29t71 29t30 70t-30 70.5t-71 29.5t-69.5 -29.5t-28.5 -70.5zM291 1436q0 -41 29.5 -70t70.5 -29t71 29t30 70t-30 70.5t-71 29.5t-70.5 -29.5t-29.5 -70.5z" />
<glyph unicode="&#xa9;" horiz-adv-x="1617" d="M41 768q0 -160 60.5 -299t165 -243.5t243.5 -165t299 -60.5t299 60.5t243.5 165t165 243.5t60.5 299t-60.5 299t-165 243.5t-243.5 165t-299 60.5t-299 -60.5t-243.5 -165t-165 -243.5t-60.5 -299zM168 768q0 131 50 248t138 205t204 138t249 50q131 0 248 -50t204 -138 t137 -205t50 -248q0 -133 -50 -249t-137 -203t-204 -137t-248 -50q-133 0 -249 50t-204 137t-138 203t-50 249zM328 768q0 -98 37.5 -185t102 -151.5t152 -101.5t185.5 -37q119 0 213 42t156 118q25 31 24 65q0 27 -13.5 48.5t-32.5 36.5t-40.5 23.5t-36.5 8.5 q-33 0 -54.5 -19.5t-48 -44t-65.5 -44t-102 -19.5q-53 0 -101.5 20.5t-84 55t-56 83t-20.5 101.5t20.5 101.5t56 84t84 56t101.5 20.5q63 0 101 -20.5t65.5 -44t50 -44t53.5 -20.5q12 0 32.5 7t41 21.5t35 36t14.5 52.5q0 37 -24 65q-61 76 -155.5 119t-213.5 43 q-98 0 -185.5 -38t-152 -102.5t-102 -151.5t-37.5 -185z" />
<glyph unicode="&#xaa;" horiz-adv-x="817" d="M41 907q0 -74 27.5 -137t72.5 -109.5t102.5 -72t114.5 -25.5q45 0 80 10.5t59.5 22.5t37 23.5t16.5 13.5q8 -25 32.5 -47.5t59.5 -22.5q39 0 66.5 27.5t27.5 68.5v498q0 39 -27.5 66.5t-66.5 27.5q-35 0 -59.5 -21.5t-32.5 -47.5q-4 2 -16.5 13t-37 23.5t-59.5 22.5 t-80 10q-57 0 -114.5 -25.5t-102.5 -71.5t-72.5 -108.5t-27.5 -138.5zM53 358q0 -23 1 -49t24 -26h633q23 0 23.5 26.5t0.5 48.5q0 25 -1 51.5t-23 26.5h-633q-23 0 -24 -26.5t-1 -51.5zM231 907q0 66 46 112t112 46t112 -46t46 -112t-46 -111.5t-112 -45.5t-112 46t-46 111 z" />
<glyph unicode="&#xab;" horiz-adv-x="563" d="M25 768q0 -47 30 -80l275 -274q33 -33 80 -33q45 0 78.5 30.5t33.5 80.5q0 43 -33 79l-194 197l194 195q33 33 33 79q0 51 -34.5 82t-77.5 31q-47 0 -80 -33l-275 -274q-30 -31 -30 -80zM512 768q0 -47 30 -80l275 -274q33 -33 80 -33q45 0 78.5 30.5t33.5 80.5 q0 43 -33 79l-194 197l194 195q33 33 33 79q0 51 -34.5 82t-77.5 31q-47 0 -80 -33l-275 -274q-30 -31 -30 -80z" />
<glyph unicode="&#xac;" horiz-adv-x="798" d="M41 768q0 -47 32.5 -80t80.5 -33h378v-112q0 -47 33 -80t80 -33t80 33t33 80v225q0 47 -33 80t-80 33h-491q-47 0 -80 -33t-33 -80z" />
<glyph unicode="&#xad;" horiz-adv-x="798" d="M41 768q0 -47 32.5 -80t80.5 -33h491q47 0 80 33t33 80t-33 80t-80 33h-491q-47 0 -80 -33t-33 -80z" />
<glyph unicode="&#xae;" horiz-adv-x="1181" d="M41 985q0 -115 43 -214t117.5 -174t175 -118t215.5 -43q113 0 213 43t175 118t118 174t43 214t-43 215t-118 175t-175 118t-213 43q-115 0 -215.5 -43t-175 -118t-117.5 -175t-43 -215zM143 985q0 92 35 174t96.5 143.5t143.5 96.5t174 35t173 -35t142.5 -96.5t96 -143.5 t34.5 -174t-34.5 -173t-96 -142.5t-142.5 -96t-173 -34.5t-174 34.5t-143.5 96t-96.5 142.5t-35 173zM393 760q0 -29 20.5 -50.5t51.5 -21.5q29 0 50.5 21.5t21.5 50.5v104h8l186 -159q20 -16 45 -17q37 0 53.5 22.5t16.5 47.5q0 31 -25 53l-114 92q14 6 36.5 17.5t45 32 t39 52t16.5 78.5q0 45 -17.5 85t-48 70t-70.5 47.5t-85 17.5h-158q-29 0 -50.5 -21.5t-21.5 -50.5v-471zM537 995v174h84q35 0 61.5 -25.5t26.5 -60.5q0 -37 -27 -62.5t-61 -25.5h-84z" />
<glyph unicode="&#xaf;" horiz-adv-x="798" d="M41 1423q0 -47 32.5 -79.5t80.5 -32.5h491q47 0 80 32.5t33 79.5t-33 80t-80 33h-491q-47 0 -80 -33t-33 -80z" />
<glyph unicode="&#xb0;" horiz-adv-x="696" d="M41 1229q0 -63 24.5 -119.5t65.5 -97.5t97.5 -65.5t119.5 -24.5t119.5 24.5t97.5 65.5t65.5 97t24.5 120q0 63 -24.5 119.5t-65.5 97.5t-97 65.5t-120 24.5q-63 0 -119.5 -24.5t-97.5 -65.5t-65.5 -97.5t-24.5 -119.5zM195 1229q0 63 44 108t109 45q63 0 108.5 -45 t45.5 -108t-45.5 -108.5t-108.5 -45.5q-66 0 -109.5 45t-43.5 109z" />
<glyph unicode="&#xb1;" horiz-adv-x="798" d="M41 354q0 -47 32.5 -79.5t80.5 -32.5h491q47 0 80 32.5t33 79.5t-33 80t-80 33h-491q-47 0 -80 -33t-33 -80zM41 938q0 -47 32.5 -80t80.5 -33h133v-133q0 -47 32.5 -79.5t79.5 -32.5t80 32.5t33 79.5v133h133q47 0 80 33t33 80t-33 80t-80 33h-133v133q0 47 -33 79.5 t-80 32.5t-79.5 -32.5t-32.5 -79.5v-133h-133q-47 0 -80 -33t-33 -80z" />
<glyph unicode="&#xb2;" horiz-adv-x="751" d="M41 1221q0 -45 30.5 -76t75.5 -31t77 31t32 76q0 66 38 103.5t85 37.5q49 0 84 -33t35 -82q0 -35 -13.5 -58.5t-38.5 -47.5l-358 -344q-12 -12 -20.5 -30.5t-8.5 -41.5q0 -41 29 -70.5t70 -29.5h450q41 0 71 29.5t30 70.5t-30 69.5t-71 28.5h-202l172 162q61 57 97 121.5 t36 134.5q0 68 -27 126t-71 102t-104 69t-128 25q-70 0 -132.5 -28t-108.5 -74t-72.5 -108.5t-26.5 -131.5z" />
<glyph unicode="&#xb3;" horiz-adv-x="759" d="M41 922q0 -53 24.5 -108.5t69.5 -100.5t106.5 -75t135.5 -30q70 0 132 25.5t108.5 72t74 106.5t27.5 132q0 55 -16.5 94t-38 64.5t-42 38t-30.5 16.5q41 23 57.5 66t16.5 84q0 55 -24 101t-62.5 81t-90 54.5t-106.5 19.5q-53 0 -103.5 -15.5t-90 -45t-63.5 -71.5t-24 -96 q0 -43 30 -78.5t75 -35.5q37 0 66.5 20t37.5 51q14 63 70 64q29 0 48.5 -20.5t19.5 -49.5q0 -35 -17.5 -48t-37 -22.5t-37 -24.5t-17.5 -54t25.5 -52.5t56.5 -27t56.5 -38t25.5 -85.5q0 -51 -36 -87t-87 -36t-87 36t-36 87q0 45 -32.5 77.5t-80.5 32.5q-45 0 -74.5 -32.5 t-29.5 -77.5v-12z" />
<glyph unicode="&#xb4;" horiz-adv-x="452" d="M41 1233q0 -33 21.5 -51.5t46.5 -18.5q30 1 61 21l201 129q23 14 32 36.5t9 47.5q0 51 -38 95t-102 44q-23 0 -45 -9t-37 -32l-129 -201q-20 -35 -20 -61z" />
<glyph unicode="&#xb5;" horiz-adv-x="1187" d="M41 -244q0 -41 33 -41q51 0 95 27t81 73t66.5 107.5t52.5 130.5q113 -66 245 -65q47 0 91.5 8t85.5 24v-20q0 -33 12 -61.5t33.5 -50t51.5 -34t62 -12.5q66 0 112 46t46 112v989q2 66 -45 112t-113 46q-33 0 -62.5 -12.5t-51 -34t-33.5 -50t-12 -61.5v-522 q0 -72 -53.5 -117t-123.5 -45q-72 0 -124 45t-52 117v522q0 33 -12 61.5t-33.5 50t-51.5 34t-62 12.5q-66 0 -112 -46t-46 -112v-508q0 -137 -3 -240.5t-10.5 -183.5t-21.5 -142t-37 -120q-8 -18 -8 -39z" />
<glyph unicode="&#xb6;" horiz-adv-x="1804" d="M41 985q0 -115 43 -214t117.5 -174t174 -118t214.5 -43h223v-256q0 -76 52.5 -128t127.5 -52q74 0 126 52t52 128v1024h181v-1024q0 -76 52 -128t128 -52q74 0 126 52t52 128v1178q0 74 -52 126t-126 52h-942q-115 0 -214.5 -43t-174 -118t-117.5 -175t-43 -215z" />
<glyph unicode="&#xb7;" horiz-adv-x="481" d="M41 768q0 -84 57.5 -142.5t141.5 -58.5t142 58.5t58 142.5q0 41 -15 77t-43 63.5t-64.5 43t-77.5 15.5t-78 -15.5t-63.5 -43t-42 -63.5t-15.5 -77z" />
<glyph unicode="&#xb9;" horiz-adv-x="497" d="M41 1436q0 -41 29.5 -70t70.5 -29h62v-614q0 -47 30.5 -78t75.5 -31q47 0 78 31t31 78v707q0 43 -32 74.5t-77 31.5h-168q-41 0 -70.5 -29.5t-29.5 -70.5z" />
<glyph unicode="&#xba;" horiz-adv-x="784" d="M41 903q0 -78 27.5 -142.5t76 -111.5t111.5 -72.5t137 -25.5q72 0 135.5 25.5t111.5 72.5t75.5 111.5t27.5 142.5q0 76 -27.5 140.5t-75.5 111.5t-111.5 72.5t-135.5 25.5q-74 0 -137 -25.5t-111.5 -72.5t-76 -111.5t-27.5 -140.5zM53 358q0 -23 1 -49t24 -26h629 q23 0 23.5 26.5t0.5 48.5q0 25 -1 51.5t-23 26.5h-629q-23 0 -24 -26.5t-1 -51.5zM225 903q0 70 49.5 118t118.5 48q70 0 118 -48t48 -118t-48 -119t-118 -49t-119 49t-49 119z" />
<glyph unicode="&#xbb;" horiz-adv-x="563" d="M41 492q0 -49 34 -80t79 -31q47 0 79 33l275 274q31 33 31 80q0 49 -31 80l-275 274q-33 33 -79 33q-43 0 -78 -30.5t-35 -82.5q0 -47 33 -79l194 -195l-194 -197q-33 -37 -33 -79zM528 492q0 -49 34 -80t79 -31q47 0 79 33l275 274q31 33 31 80q0 49 -31 80l-275 274 q-33 33 -79 33q-43 0 -78 -30.5t-35 -82.5q0 -47 33 -79l194 -195l-194 -197q-33 -37 -33 -79z" />
<glyph unicode="&#xbc;" horiz-adv-x="2287" d="M41 1411q0 -51 36 -88t89 -37h78v-766q0 -57 39 -96t94 -39q57 0 96 39t39 96v883q0 53 -40 93t-95 40h-211q-53 0 -89 -36t-36 -89zM401 125q0 -57 39 -91t84 -34q29 0 55 12t44 35l1024 1315q27 37 26 76q0 33 -12 57.5t-31.5 38.5t-41 21.5t-40.5 7.5 q-29 0 -54.5 -12.5t-43.5 -34.5l-1024 -1315q-25 -35 -25 -76zM1276 385q0 -55 39 -94t94 -39h424v-117q0 -55 39 -95t96 -40q55 0 94 40t39 95v117h31q47 0 81 33.5t34 81.5q0 47 -34 80.5t-81 33.5h-31v539q0 55 -39 94t-94 39h-174q-43 0 -71.5 -15.5t-39.5 -31.5 l-358 -483q-31 -41 -40 -72t-9 -70v-96zM1518 481l315 424v-424h-315z" />
<glyph unicode="&#xbd;" horiz-adv-x="2355" d="M41 1411q0 -51 36 -88t89 -37h78v-766q0 -57 39 -96t94 -39q57 0 96 39t39 96v883q0 53 -40 93t-95 40h-211q-53 0 -89 -36t-36 -89zM401 125q0 -57 39 -91t84 -34q29 0 55 12t44 35l1024 1315q27 37 26 76q0 33 -12 57.5t-31.5 38.5t-41 21.5t-40.5 7.5 q-29 0 -54.5 -12.5t-43.5 -34.5l-1024 -1315q-25 -35 -25 -76zM1460 745q0 -55 39 -95t94 -40t95.5 40t40.5 95q0 80 47 128.5t106 48.5q61 0 105.5 -42t44.5 -102q0 -43 -16.5 -73.5t-47.5 -59.5l-448 -432q-16 -16 -26.5 -37.5t-10.5 -50.5q0 -53 35.5 -89t89.5 -36h561 q53 0 90 36t37 89q0 51 -37 88t-90 37h-252l215 201q78 72 123 152.5t45 166.5q0 84 -33 157.5t-89 128t-132 85t-160 30.5q-88 0 -164.5 -33.5t-135 -92t-92.5 -135t-34 -165.5z" />
<glyph unicode="&#xbe;" horiz-adv-x="2580" d="M41 760q0 -66 30.5 -134.5t87 -125t133.5 -93t169 -36.5q88 0 166 32.5t136 89t93 133t35 165.5q0 70 -20.5 117.5t-48 78.5t-53.5 47.5t-38 20.5q49 29 69.5 83t20.5 103q0 68 -28.5 127t-77.5 102t-112.5 68t-133.5 25q-66 0 -129.5 -19.5t-112.5 -56.5t-79.5 -89 t-30.5 -120q0 -53 38 -97t95 -44q47 0 83 24.5t46 63.5q10 35 31.5 57.5t56.5 22.5t59.5 -27t24.5 -61q0 -43 -21.5 -59.5t-46 -29t-46 -31t-21.5 -67.5q0 -47 31.5 -64.5t70.5 -34t71 -48t32 -107.5q0 -61 -45.5 -107t-108.5 -46t-108.5 46t-45.5 107q0 57 -42 98t-99 41 q-55 0 -93 -40.5t-38 -98.5v-16zM694 125q0 -57 39 -91t84 -34q29 0 54.5 12t43.5 35l1024 1315q27 37 27 76q0 33 -12 57.5t-31.5 38.5t-41 21.5t-40.5 7.5q-29 0 -54.5 -12.5t-43.5 -34.5l-1024 -1315q-25 -35 -25 -76zM1569 385q0 -55 39 -94t94 -39h424v-117 q0 -55 39 -95t96 -40q55 0 94 40t39 95v117h31q47 0 81 33.5t34 81.5q0 47 -34 80.5t-81 33.5h-31v539q0 55 -39 94t-94 39h-174q-43 0 -71.5 -15.5t-39.5 -31.5l-358 -483q-31 -41 -40 -72t-9 -70v-96zM1810 481l316 424v-424h-316z" />
<glyph unicode="&#xbf;" horiz-adv-x="1161" d="M41 516q0 -113 43 -211t116.5 -172t172 -117t211.5 -43q90 0 164.5 25t134 65.5t104.5 92t75 104.5t44 103.5t14 87.5q0 72 -46 113.5t-105 41.5q-57 0 -100.5 -34.5t-53.5 -90.5q-14 -90 -77.5 -145t-153.5 -55q-49 0 -91 18t-75 51t-51.5 75t-18.5 91t18.5 92t51.5 75 t75 50.5t91 18.5q63 0 108 45t45 108q0 66 -45 110t-108 44q-111 0 -210.5 -42t-173 -116t-116.5 -173t-43 -212zM385 1335q0 -41 15.5 -76.5t42 -63.5t63.5 -43t78 -15t77.5 15t64.5 43t43 63.5t15 76.5q0 84 -58 142.5t-142 58.5t-141.5 -58.5t-57.5 -142.5z" />
<glyph unicode="&#xc0;" horiz-adv-x="1499" d="M25 178q0 -49 18 -83t45 -55.5t57.5 -30.5t55.5 -9q51 0 96 27.5t65 76.5l74 175h629l72 -175q20 -49 65 -76.5t96 -27.5q74 0 125.5 51t51.5 127q0 37 -15 72l-534 1202q-47 111 -170 111q-119 0 -170 -111l-545 -1202q-16 -37 -16 -72zM487 1911q0 -25 9.5 -47.5 t31.5 -36.5l201 -129q31 -20 62 -21q25 0 46 18.5t21 51.5q0 27 -20 61l-129 201q-14 23 -37 32t-45 9q-63 0 -101.5 -44t-38.5 -95zM567 586l189 448l184 -448h-373z" />
<glyph unicode="&#xc1;" horiz-adv-x="1499" d="M25 178q0 -49 18 -83t45 -55.5t57.5 -30.5t55.5 -9q51 0 96 27.5t65 76.5l74 175h629l72 -175q20 -49 65 -76.5t96 -27.5q74 0 125.5 51t51.5 127q0 37 -15 72l-534 1202q-47 111 -170 111q-119 0 -170 -111l-545 -1202q-16 -37 -16 -72zM567 586l189 448l184 -448h-373z M676 1747q0 -33 21.5 -51.5t45.5 -18.5q31 1 62 21l201 129q23 14 32 36.5t9 47.5q0 51 -38 95t-102 44q-23 0 -45 -9t-37 -32l-129 -201q-20 -35 -20 -61z" />
<glyph unicode="&#xc2;" horiz-adv-x="1499" d="M25 178q0 -49 18 -83t45 -55.5t57.5 -30.5t55.5 -9q51 0 96 27.5t65 76.5l74 175h629l72 -175q20 -49 65 -76.5t96 -27.5q74 0 125.5 51t51.5 127q0 37 -15 72l-534 1202q-47 111 -170 111q-119 0 -170 -111l-545 -1202q-16 -37 -16 -72zM514 1763q0 -31 22.5 -53 t53.5 -22q27 0 53 22l117 115l114 -115q23 -23 54 -22q31 0 54.5 22.5t23.5 52.5q0 33 -23 56l-166 168q-27 27 -57 26q-31 0 -58 -26l-167 -168q-20 -20 -21 -56zM567 586l189 448l184 -448h-373z" />
<glyph unicode="&#xc3;" horiz-adv-x="1499" d="M25 178q0 -49 18 -83t45 -55.5t57.5 -30.5t55.5 -9q51 0 96 27.5t65 76.5l74 175h629l72 -175q20 -49 65 -76.5t96 -27.5q74 0 125.5 51t51.5 127q0 37 -15 72l-534 1202q-47 111 -170 111q-119 0 -170 -111l-545 -1202q-16 -37 -16 -72zM465 1845q0 -20 13.5 -34.5 t35.5 -14.5q23 0 37 14.5t14 34.5q0 33 22.5 55.5t53.5 22.5t53.5 -22.5t22.5 -55.5q0 -84 52 -130t124 -46q37 0 69.5 14.5t57 38t38 55t13.5 68.5q0 23 -14.5 37t-36.5 14q-20 0 -34.5 -14t-14.5 -37q0 -31 -22.5 -53.5t-55.5 -22.5q-31 0 -53.5 23t-22.5 53q0 86 -52 132 t-124 46q-74 0 -125 -51t-51 -127zM567 586l189 448l184 -448h-373z" />
<glyph unicode="&#xc4;" horiz-adv-x="1499" d="M25 178q0 -49 18 -83t45 -55.5t57.5 -30.5t55.5 -9q51 0 96 27.5t65 76.5l74 175h629l72 -175q20 -49 65 -76.5t96 -27.5q74 0 125.5 51t51.5 127q0 37 -15 72l-534 1202q-47 111 -170 111q-119 0 -170 -111l-545 -1202q-16 -37 -16 -72zM535 1790q0 -41 29.5 -70.5 t70.5 -29.5t70.5 29.5t29.5 70.5t-29.5 70.5t-70.5 29.5t-70.5 -29.5t-29.5 -70.5zM567 586l189 448l184 -448h-373zM786 1790q0 -41 30 -70.5t71 -29.5t70.5 29.5t29.5 70.5t-29.5 70.5t-70.5 29.5t-71 -29.5t-30 -70.5z" />
<glyph unicode="&#xc5;" horiz-adv-x="1499" d="M25 178q0 -49 18 -83t45 -55.5t57.5 -30.5t55.5 -9q51 0 96 27.5t65 76.5l74 175h629l72 -175q20 -49 65 -76.5t96 -27.5q74 0 125.5 51t51.5 127q0 37 -15 72l-534 1202q-47 111 -170 111q-119 0 -170 -111l-545 -1202q-16 -37 -16 -72zM557 1878q0 -84 58.5 -142.5 t142.5 -58.5t142 58.5t58 142.5t-58 142.5t-142 58.5t-142.5 -58.5t-58.5 -142.5zM567 586l189 448l184 -448h-373zM657 1878q0 41 30 70.5t71 29.5t70.5 -29.5t29.5 -70.5t-29.5 -70.5t-70.5 -29.5t-71 29.5t-30 70.5z" />
<glyph unicode="&#xc6;" horiz-adv-x="2125" d="M25 178q0 -74 52 -126t126 -52q37 0 72.5 14.5t62.5 44.5l190 220h521v-101q0 -74 52 -126t126 -52h692q68 0 117 48t49 118t-49 118t-117 48h-512v303h393q63 0 108.5 45t45.5 108t-45 108.5t-109 45.5h-393v262h512q68 0 117 48t49 118t-49 118t-117 48h-692 q-41 0 -74.5 -15t-56.5 -42l-1028 -1184q-23 -25 -33 -55.5t-10 -61.5zM797 586l252 291v-291h-252z" />
<glyph unicode="&#xc7;" horiz-adv-x="1544" d="M41 768q0 -156 56.5 -293t152.5 -242.5t227 -172t281 -80.5v-82q0 -33 -22.5 -55.5t-55.5 -22.5h-115q-33 0 -54.5 -21.5t-21.5 -54.5t21.5 -55.5t54.5 -22.5h115q47 0 89 18.5t73.5 50.5t50 73.5t18.5 89.5v79q147 10 289.5 74t247.5 191q41 51 41 110q0 45 -23.5 82 t-55.5 61.5t-66.5 38t-59.5 13.5q-33 0 -64.5 -16.5t-64.5 -55.5q-47 -53 -132 -97t-189 -44q-90 0 -169 33.5t-138.5 93t-93.5 138.5t-34 169t34 169t93.5 138.5t138 94t169.5 34.5q104 0 189 -44t132 -99q31 -37 63.5 -53.5t63.5 -16.5q39 0 77 17.5t66.5 46t46 62.5 t17.5 69q0 57 -41 108q-104 127 -260 198t-354 71q-164 0 -307.5 -62.5t-252 -170t-171 -253t-62.5 -309.5z" />
<glyph unicode="&#xc8;" horiz-adv-x="1171" d="M94 178q0 -74 52.5 -126t125.5 -52h693q70 0 117.5 48t47.5 118t-48 118t-117 48h-512v303h393q66 0 109.5 45t43.5 108t-44 108.5t-109 45.5h-393v262h512q70 0 117.5 48t47.5 118t-48 118t-117 48h-693q-74 0 -126 -52t-52 -126v-1180zM391 1911q0 -25 9.5 -47.5 t31.5 -36.5l201 -129q31 -20 61 -21q25 0 46.5 18.5t21.5 51.5q0 27 -21 61l-129 201q-14 23 -36.5 32t-45.5 9q-63 0 -101 -44t-38 -95z" />
<glyph unicode="&#xc9;" horiz-adv-x="1171" d="M94 178q0 -74 52.5 -126t125.5 -52h693q70 0 117.5 48t47.5 118t-48 118t-117 48h-512v303h393q66 0 109.5 45t43.5 108t-44 108.5t-109 45.5h-393v262h512q70 0 117.5 48t47.5 118t-48 118t-117 48h-693q-74 0 -126 -52t-52 -126v-1180zM446 1747q0 -33 21.5 -51.5 t46.5 -18.5q30 1 61 21l201 129q23 14 32 36.5t9 47.5q0 51 -38 95t-101 44q-23 0 -45.5 -9t-36.5 -32l-129 -201q-20 -35 -21 -61z" />
<glyph unicode="&#xca;" horiz-adv-x="1171" d="M94 178q0 -74 52.5 -126t125.5 -52h693q70 0 117.5 48t47.5 118t-48 118t-117 48h-512v303h393q66 0 109.5 45t43.5 108t-44 108.5t-109 45.5h-393v262h512q70 0 117.5 48t47.5 118t-48 118t-117 48h-693q-74 0 -126 -52t-52 -126v-1180zM334 1763q0 -31 22.5 -53 t53.5 -22q27 0 53 22l117 115l114 -115q23 -23 54 -22q31 0 54 22.5t23 52.5q0 33 -22 56l-166 168q-27 27 -57 26q-31 0 -58 -26l-168 -168q-20 -20 -20 -56z" />
<glyph unicode="&#xcb;" horiz-adv-x="1171" d="M94 178q0 -74 52.5 -126t125.5 -52h693q70 0 117.5 48t47.5 118t-48 118t-117 48h-512v303h393q66 0 109.5 45t43.5 108t-44 108.5t-109 45.5h-393v262h512q70 0 117.5 48t47.5 118t-48 118t-117 48h-693q-74 0 -126 -52t-52 -126v-1180zM358 1790q0 -41 30 -70.5 t71 -29.5t70.5 29.5t29.5 70.5t-29.5 70.5t-70.5 29.5t-71 -29.5t-30 -70.5zM610 1790q0 -41 30 -70.5t71 -29.5t70.5 29.5t29.5 70.5t-29.5 70.5t-70.5 29.5t-71 -29.5t-30 -70.5z" />
<glyph unicode="&#xcc;" horiz-adv-x="546" d="M-33 1911q0 -25 9.5 -47.5t31.5 -36.5l201 -129q31 -20 61 -21q25 0 46.5 18.5t21.5 51.5q0 27 -21 61l-129 201q-14 23 -36.5 32t-45.5 9q-63 0 -101 -44t-38 -95zM94 180q0 -76 52.5 -128t125.5 -52q76 0 128.5 52t52.5 128v1178q0 74 -52.5 126t-128.5 52 q-74 0 -126 -52t-52 -126v-1178z" />
<glyph unicode="&#xcd;" horiz-adv-x="546" d="M94 180q0 -76 52.5 -128t125.5 -52q76 0 128.5 52t52.5 128v1178q0 74 -52.5 126t-128.5 52q-74 0 -126 -52t-52 -126v-1178zM199 1747q0 -33 21.5 -51.5t45.5 -18.5q31 1 62 21l200 129q23 14 32 36.5t9 47.5q0 51 -37.5 95t-101.5 44q-23 0 -45.5 -9t-36.5 -32 l-129 -201q-20 -35 -20 -61z" />
<glyph unicode="&#xce;" horiz-adv-x="546" d="M27 1763q0 -31 22.5 -53t52.5 -22q27 0 54 22l116 115l115 -115q23 -23 53 -22q31 0 54.5 22.5t23.5 52.5q0 33 -22 56l-166 168q-27 27 -58 26q-31 0 -57 -26l-168 -168q-20 -20 -20 -56zM94 180q0 -76 52.5 -128t125.5 -52q76 0 128.5 52t52.5 128v1178q0 74 -52.5 126 t-128.5 52q-74 0 -126 -52t-52 -126v-1178z" />
<glyph unicode="&#xcf;" horiz-adv-x="546" d="M47 1790q0 -41 29.5 -70.5t70.5 -29.5t71 29.5t30 70.5t-30 70.5t-71 29.5t-70.5 -29.5t-29.5 -70.5zM94 180q0 -76 52.5 -128t125.5 -52q76 0 128.5 52t52.5 128v1178q0 74 -52.5 126t-128.5 52q-74 0 -126 -52t-52 -126v-1178zM297 1790q0 -41 29.5 -70.5t70.5 -29.5 t71 29.5t30 70.5t-30 70.5t-71 29.5t-70.5 -29.5t-29.5 -70.5z" />
<glyph unicode="&#xd0;" horiz-adv-x="1701" d="M41 768q0 -33 17.5 -61.5t45 -50t61.5 -34t66 -12.5h48v-432q0 -74 52 -126t126 -52h481q154 0 287 62.5t229 168t151.5 244.5t55.5 293t-55.5 293t-151.5 244.5t-229 168t-287 62.5h-481q-74 0 -126 -52t-52 -126v-430h-80q-33 0 -61.5 -12.5t-50 -34t-34 -51 t-12.5 -62.5zM637 334v276h80q33 0 62.5 12.5t51 34t34 50t12.5 61.5q0 66 -47.5 113t-112.5 47h-80v276h256q88 0 162.5 -35.5t130 -96t86.5 -139.5t31 -167t-32 -166t-87.5 -137.5t-130 -94t-160.5 -34.5h-256z" />
<glyph unicode="&#xd1;" horiz-adv-x="1509" d="M94 180q0 -76 52.5 -128t125.5 -52q76 0 128.5 52t52.5 128v717l641 -825q23 -29 58.5 -50.5t82.5 -21.5q76 0 128 52t52 128v1178q0 74 -52 126t-128 52q-74 0 -126 -52t-52 -126v-715l-645 827q-23 27 -59 46.5t-81 19.5q-74 0 -126 -52t-52 -126v-1178zM440 1845 q0 -20 13.5 -34.5t35.5 -14.5q23 0 37.5 14.5t14.5 34.5q0 33 22 55.5t53 22.5t53.5 -22.5t22.5 -55.5q0 -84 52.5 -130t123.5 -46q37 0 70 14.5t57.5 38t38 55t13.5 68.5q0 23 -14.5 37t-37.5 14q-20 0 -34.5 -14t-14.5 -37q0 -31 -22.5 -53.5t-55.5 -22.5q-31 0 -53 23 t-22 53q0 86 -52.5 132t-124.5 46q-74 0 -125 -51t-51 -127z" />
<glyph unicode="&#xd2;" d="M41 768q0 -164 62.5 -309.5t170 -253t252 -170t308.5 -62.5t309 62.5t252.5 170t170 253t62.5 309.5t-62.5 309.5t-170 253t-253 170t-308.5 62.5q-164 0 -308.5 -62.5t-252 -170t-170 -253t-62.5 -309.5zM399 768q0 90 34 169t93.5 138.5t138 94t169.5 34.5 q90 0 169.5 -34.5t139 -94t93.5 -138.5t34 -169t-34 -169t-93.5 -138.5t-139 -93t-169.5 -33.5t-169 33.5t-138.5 93t-93.5 138.5t-34 169zM545 1911q0 -25 9 -47.5t32 -36.5l200 -129q31 -20 62 -21q25 0 46 18.5t21 51.5q0 27 -20 61l-129 201q-14 23 -36.5 32t-45.5 9 q-63 0 -101 -44t-38 -95z" />
<glyph unicode="&#xd3;" d="M41 768q0 -164 62.5 -309.5t170 -253t252 -170t308.5 -62.5t309 62.5t252.5 170t170 253t62.5 309.5t-62.5 309.5t-170 253t-253 170t-308.5 62.5q-164 0 -308.5 -62.5t-252 -170t-170 -253t-62.5 -309.5zM399 768q0 90 34 169t93.5 138.5t138 94t169.5 34.5 q90 0 169.5 -34.5t139 -94t93.5 -138.5t34 -169t-34 -169t-93.5 -138.5t-139 -93t-169.5 -33.5t-169 33.5t-138.5 93t-93.5 138.5t-34 169zM723 1747q0 -33 21.5 -51.5t46.5 -18.5q30 1 61 21l201 129q23 14 32 36.5t9 47.5q0 51 -38 95t-102 44q-23 0 -45 -9t-37 -32 l-129 -201q-20 -35 -20 -61z" />
<glyph unicode="&#xd4;" d="M41 768q0 -164 62.5 -309.5t170 -253t252 -170t308.5 -62.5t309 62.5t252.5 170t170 253t62.5 309.5t-62.5 309.5t-170 253t-253 170t-308.5 62.5q-164 0 -308.5 -62.5t-252 -170t-170 -253t-62.5 -309.5zM399 768q0 90 34 169t93.5 138.5t138 94t169.5 34.5 q90 0 169.5 -34.5t139 -94t93.5 -138.5t34 -169t-34 -169t-93.5 -138.5t-139 -93t-169.5 -33.5t-169 33.5t-138.5 93t-93.5 138.5t-34 169zM586 1763q0 -31 22.5 -53t53.5 -22q27 0 53 22l116 115l115 -115q23 -23 53 -22q31 0 54.5 22.5t23.5 52.5q0 33 -22 56l-166 168 q-27 27 -58 26q-31 0 -57 -26l-168 -168q-20 -20 -20 -56z" />
<glyph unicode="&#xd5;" d="M41 768q0 -164 62.5 -309.5t170 -253t252 -170t308.5 -62.5t309 62.5t252.5 170t170 253t62.5 309.5t-62.5 309.5t-170 253t-253 170t-308.5 62.5q-164 0 -308.5 -62.5t-252 -170t-170 -253t-62.5 -309.5zM399 768q0 90 34 169t93.5 138.5t138 94t169.5 34.5 q90 0 169.5 -34.5t139 -94t93.5 -138.5t34 -169t-34 -169t-93.5 -138.5t-139 -93t-169.5 -33.5t-169 33.5t-138.5 93t-93.5 138.5t-34 169zM520 1845q0 -20 13.5 -34.5t35.5 -14.5q23 0 37.5 14.5t14.5 34.5q0 33 22 55.5t53 22.5t53.5 -22.5t22.5 -55.5q0 -84 52.5 -130 t123.5 -46q37 0 70 14.5t57.5 38t37.5 55t13 68.5q0 23 -14 37t-37 14q-20 0 -34.5 -14t-14.5 -37q0 -31 -22.5 -53.5t-55.5 -22.5q-31 0 -53.5 23t-22.5 53q0 86 -52 132t-124 46q-74 0 -125 -51t-51 -127z" />
<glyph unicode="&#xd6;" d="M41 768q0 -164 62.5 -309.5t170 -253t252 -170t308.5 -62.5t309 62.5t252.5 170t170 253t62.5 309.5t-62.5 309.5t-170 253t-253 170t-308.5 62.5q-164 0 -308.5 -62.5t-252 -170t-170 -253t-62.5 -309.5zM399 768q0 90 34 169t93.5 138.5t138 94t169.5 34.5 q90 0 169.5 -34.5t139 -94t93.5 -138.5t34 -169t-34 -169t-93.5 -138.5t-139 -93t-169.5 -33.5t-169 33.5t-138.5 93t-93.5 138.5t-34 169zM606 1790q0 -41 30 -70.5t71 -29.5t70.5 29.5t29.5 70.5t-29.5 70.5t-70.5 29.5t-71 -29.5t-30 -70.5zM858 1790q0 -41 30 -70.5 t70 -29.5q41 0 71 29.5t30 70.5t-30 70.5t-71 29.5t-70.5 -29.5t-29.5 -70.5z" />
<glyph unicode="&#xd7;" horiz-adv-x="655" d="M41 594q0 -31 11 -52.5t28.5 -34.5t37 -19.5t36.5 -6.5q47 0 79 33l95 94l94 -94q33 -33 80 -33q53 0 82.5 37t29.5 76q0 43 -32 80l-95 94l95 94q33 33 32 80q0 51 -33.5 82t-78.5 31q-47 0 -80 -33l-94 -94l-95 94q-33 33 -79 33q-31 0 -52.5 -12.5t-35 -29t-19.5 -37 t-6 -34.5q0 -47 33 -80l94 -94l-94 -94q-33 -33 -33 -80z" />
<glyph unicode="&#xd8;" d="M41 768q0 -131 38 -239.5t91 -190.5l-55 -53q-25 -25 -37 -56.5t-12 -62.5q0 -70 48 -118t117 -48q70 0 119 49l56 53q86 -55 191 -91t237 -38q164 0 309 63.5t252.5 171t170 252t62.5 308.5q0 133 -39 242.5t-90 187.5l55 53q25 25 36.5 55.5t11.5 63.5q0 70 -48.5 118 t-117.5 48q-63 0 -117 -49l-55 -53q-82 53 -189.5 91t-240.5 38q-164 0 -308.5 -62.5t-252 -171t-170 -253t-62.5 -308.5zM399 768q0 90 34 169t93.5 138.5t138 94t169.5 34.5q51 0 91 -9t76 -26l-569 -567q-16 37 -24.5 77t-8.5 89zM668 367l569 567q14 -35 23.5 -76 t9.5 -90q0 -90 -34 -169t-93.5 -137.5t-138 -93t-170.5 -34.5q-49 0 -88 8.5t-78 24.5z" />
<glyph unicode="&#xd9;" horiz-adv-x="1441" d="M94 602q0 -129 49.5 -243.5t134 -200.5t199.5 -135.5t244 -49.5t243.5 49.5t199.5 135.5t134.5 200.5t49.5 243.5v756q0 74 -52.5 126t-126.5 52t-127 -52t-53 -126v-756q0 -55 -21.5 -104t-57.5 -85t-85 -57.5t-104 -21.5t-104.5 21.5t-85 57.5t-57 85t-21.5 104v756 q0 74 -52.5 126t-128.5 52q-74 0 -126 -52t-52 -126v-756zM434 1911q0 -25 9.5 -47.5t31.5 -36.5l201 -129q31 -20 61 -21q25 0 46.5 18.5t21.5 51.5q0 27 -21 61l-129 201q-14 23 -36.5 32t-45.5 9q-63 0 -101 -44t-38 -95z" />
<glyph unicode="&#xda;" horiz-adv-x="1441" d="M94 602q0 -129 49.5 -243.5t134 -200.5t199.5 -135.5t244 -49.5t243.5 49.5t199.5 135.5t134.5 200.5t49.5 243.5v756q0 74 -52.5 126t-126.5 52t-127 -52t-53 -126v-756q0 -55 -21.5 -104t-57.5 -85t-85 -57.5t-104 -21.5t-104.5 21.5t-85 57.5t-57 85t-21.5 104v756 q0 74 -52.5 126t-128.5 52q-74 0 -126 -52t-52 -126v-756zM625 1747q0 -33 21.5 -51.5t45.5 -18.5q31 1 62 21l200 129q23 14 32 36.5t9 47.5q0 51 -37.5 95t-101.5 44q-23 0 -45.5 -9t-36.5 -32l-129 -201q-20 -35 -20 -61z" />
<glyph unicode="&#xdb;" horiz-adv-x="1441" d="M94 602q0 -129 49.5 -243.5t134 -200.5t199.5 -135.5t244 -49.5t243.5 49.5t199.5 135.5t134.5 200.5t49.5 243.5v756q0 74 -52.5 126t-126.5 52t-127 -52t-53 -126v-756q0 -55 -21.5 -104t-57.5 -85t-85 -57.5t-104 -21.5t-104.5 21.5t-85 57.5t-57 85t-21.5 104v756 q0 74 -52.5 126t-128.5 52q-74 0 -126 -52t-52 -126v-756zM471 1763q0 -31 22.5 -53t53.5 -22q27 0 53 22l117 115l114 -115q23 -23 54 -22q31 0 54.5 22.5t23.5 52.5q0 33 -23 56l-166 168q-27 27 -57 26q-31 0 -58 -26l-167 -168q-20 -20 -21 -56z" />
<glyph unicode="&#xdc;" horiz-adv-x="1441" d="M94 602q0 -129 49.5 -243.5t134 -200.5t199.5 -135.5t244 -49.5t243.5 49.5t199.5 135.5t134.5 200.5t49.5 243.5v756q0 74 -52.5 126t-126.5 52t-127 -52t-53 -126v-756q0 -55 -21.5 -104t-57.5 -85t-85 -57.5t-104 -21.5t-104.5 21.5t-85 57.5t-57 85t-21.5 104v756 q0 74 -52.5 126t-128.5 52q-74 0 -126 -52t-52 -126v-756zM496 1790q0 -41 29.5 -70.5t70.5 -29.5t70.5 29.5t29.5 70.5t-29.5 70.5t-70.5 29.5t-70.5 -29.5t-29.5 -70.5zM748 1790q0 -41 29.5 -70.5t70.5 -29.5t70.5 29.5t29.5 70.5t-29.5 70.5t-70.5 29.5t-70.5 -29.5 t-29.5 -70.5z" />
<glyph unicode="&#xdd;" horiz-adv-x="1327" d="M25 1356q0 -55 30 -101l430 -620v-455q0 -76 52.5 -128t126.5 -52t127 52t53 128v455l428 620q31 45 31 101q0 43 -16.5 76.5t-42 57t-57.5 35t-63 11.5q-43 0 -81.5 -19.5t-65.5 -58.5l-313 -450l-314 450q-27 39 -65.5 58.5t-81.5 19.5q-31 0 -62.5 -11.5t-57.5 -35 t-42 -57t-16 -76.5zM598 1747q0 -33 21.5 -51.5t46.5 -18.5q30 1 61 21l201 129q23 14 32 36.5t9 47.5q0 51 -38 95t-102 44q-23 0 -45 -9t-36 -32l-130 -201q-20 -35 -20 -61z" />
<glyph unicode="&#xde;" horiz-adv-x="1265" d="M94 180q0 -76 52.5 -128t125.5 -52q76 0 128.5 52t52.5 128v37h223q113 0 213 43t175 118t118 174t43 214t-43 215t-118 175t-175.5 118t-212.5 43h-223v39q0 76 -52.5 128t-128.5 52q-74 0 -126 -52t-52 -128v-1176zM453 549v436h196q45 0 85 -17.5t68.5 -47t46 -69.5 t17.5 -85t-17.5 -84t-46 -68.5t-68.5 -47t-85 -17.5h-196z" />
<glyph unicode="&#xdf;" horiz-adv-x="1589" d="M41 981q0 -59 41 -100t100 -41h2v-682q0 -66 46 -112t112 -46q33 0 62.5 12.5t51 34t34 50t12.5 61.5v1016q0 29 13 48t75 19q98 0 159.5 -27.5t61.5 -66.5q0 -51 -35 -80q-53 -43 -79.5 -110.5t-26.5 -147.5q0 -96 40 -155.5t99 -97.5t130 -58.5t130 -39t99 -42 t40 -62.5q0 -41 -39 -58t-79 -17q-47 0 -87 27.5t-78 60t-79 60.5t-86 28q-72 0 -114 -40t-42 -122q0 -68 48 -123t120 -96t154 -63.5t149 -22.5q94 0 177 24.5t146.5 72.5t100.5 121t37 171q0 102 -40 164.5t-99.5 99.5t-129 56.5t-129 37t-99.5 41t-40 70.5q0 20 19 37 q57 47 92 77.5t54.5 60.5t25.5 67.5t6 99.5q0 61 -21.5 124.5t-92 116t-206 86t-364.5 33.5q-84 0 -145.5 -28.5t-102.5 -78.5t-60.5 -119t-19.5 -148v-52h-2q-59 0 -100 -41t-41 -100z" />
<glyph unicode="&#xe0;" horiz-adv-x="1282" d="M41 573q0 -125 47 -229t122 -181t170 -120t191 -43q76 0 133.5 16.5t97.5 38t62.5 40t28.5 22.5q10 -43 53 -80t98 -37q66 0 112 47t46 113v829q0 66 -46 112t-112 46q-55 0 -98 -37t-53 -80q-6 4 -28.5 22.5t-62.5 40t-97.5 38t-133.5 16.5q-96 0 -191 -43t-170 -119 t-122 -181.5t-47 -230.5zM350 1458q0 -18 8.5 -36.5t24.5 -28.5l162 -105q23 -16 49 -16q18 0 35.5 15.5t17.5 39.5q0 23 -16 49l-103 162q-25 33 -65 33q-51 0 -82 -36t-31 -77zM358 573q0 55 20.5 103.5t56.5 84.5t84.5 56.5t103.5 20.5t102 -20.5t83 -56.5t56.5 -84 t20.5 -104q0 -55 -20.5 -103t-56.5 -84t-83 -56.5t-102 -20.5t-103.5 20.5t-84.5 56.5t-56.5 84t-20.5 103z" />
<glyph unicode="&#xe1;" horiz-adv-x="1282" d="M41 573q0 -125 47 -229t122 -181t170 -120t191 -43q76 0 133.5 16.5t97.5 38t62.5 40t28.5 22.5q10 -43 53 -80t98 -37q66 0 112 47t46 113v829q0 66 -46 112t-112 46q-55 0 -98 -37t-53 -80q-6 4 -28.5 22.5t-62.5 40t-97.5 38t-133.5 16.5q-96 0 -191 -43t-170 -119 t-122 -181.5t-47 -230.5zM358 573q0 55 20.5 103.5t56.5 84.5t84.5 56.5t103.5 20.5t102 -20.5t83 -56.5t56.5 -84t20.5 -104q0 -55 -20.5 -103t-56.5 -84t-83 -56.5t-102 -20.5t-103.5 20.5t-84.5 56.5t-56.5 84t-20.5 103zM518 1327q0 -25 17.5 -40t35.5 -15q27 0 50 16 l161 105q16 10 24.5 28.5t8.5 36.5q0 41 -30.5 77t-82.5 36q-41 0 -65 -33l-102 -162q-16 -27 -17 -49z" />
<glyph unicode="&#xe2;" horiz-adv-x="1282" d="M41 573q0 -125 47 -229t122 -181t170 -120t191 -43q76 0 133.5 16.5t97.5 38t62.5 40t28.5 22.5q10 -43 53 -80t98 -37q66 0 112 47t46 113v829q0 66 -46 112t-112 46q-55 0 -98 -37t-53 -80q-6 4 -28.5 22.5t-62.5 40t-97.5 38t-133.5 16.5q-96 0 -191 -43t-170 -119 t-122 -181.5t-47 -230.5zM346 1343q0 -31 22.5 -53t53.5 -22q27 0 53 22l117 115l115 -115q23 -23 53 -22q31 0 54.5 22.5t23.5 52.5q0 33 -23 56l-166 168q-27 27 -57 26q-31 0 -57 -26l-168 -168q-20 -20 -21 -56zM358 573q0 55 20.5 103.5t56.5 84.5t84.5 56.5 t103.5 20.5t102 -20.5t83 -56.5t56.5 -84t20.5 -104q0 -55 -20.5 -103t-56.5 -84t-83 -56.5t-102 -20.5t-103.5 20.5t-84.5 56.5t-56.5 84t-20.5 103z" />
<glyph unicode="&#xe3;" horiz-adv-x="1282" d="M41 573q0 -125 47 -229t122 -181t170 -120t191 -43q76 0 133.5 16.5t97.5 38t62.5 40t28.5 22.5q10 -43 53 -80t98 -37q66 0 112 47t46 113v829q0 66 -46 112t-112 46q-55 0 -98 -37t-53 -80q-6 4 -28.5 22.5t-62.5 40t-97.5 38t-133.5 16.5q-96 0 -191 -43t-170 -119 t-122 -181.5t-47 -230.5zM319 1417q0 -20 13.5 -34.5t36.5 -14.5t37 14.5t14 34.5q0 33 22.5 55.5t53.5 22.5t53 -22.5t22 -55.5q0 -84 52.5 -130t124.5 -46q37 0 69.5 14.5t57 38t38 55t13.5 68.5q0 23 -14.5 37t-37.5 14q-20 0 -34.5 -14t-14.5 -37q0 -31 -22.5 -53.5 t-54.5 -22.5q-31 0 -53.5 22.5t-22.5 53.5q0 86 -52.5 132t-123.5 46q-74 0 -125.5 -51t-51.5 -127zM358 573q0 55 20.5 103.5t56.5 84.5t84.5 56.5t103.5 20.5t102 -20.5t83 -56.5t56.5 -84t20.5 -104q0 -55 -20.5 -103t-56.5 -84t-83 -56.5t-102 -20.5t-103.5 20.5 t-84.5 56.5t-56.5 84t-20.5 103z" />
<glyph unicode="&#xe4;" horiz-adv-x="1282" d="M41 573q0 -125 47 -229t122 -181t170 -120t191 -43q76 0 133.5 16.5t97.5 38t62.5 40t28.5 22.5q10 -43 53 -80t98 -37q66 0 112 47t46 113v829q0 66 -46 112t-112 46q-55 0 -98 -37t-53 -80q-6 4 -28.5 22.5t-62.5 40t-97.5 38t-133.5 16.5q-96 0 -191 -43t-170 -119 t-122 -181.5t-47 -230.5zM358 573q0 55 20.5 103.5t56.5 84.5t84.5 56.5t103.5 20.5t102 -20.5t83 -56.5t56.5 -84t20.5 -104q0 -55 -20.5 -103t-56.5 -84t-83 -56.5t-102 -20.5t-103.5 20.5t-84.5 56.5t-56.5 84t-20.5 103zM367 1370q0 -41 29.5 -70.5t70.5 -29.5 t70.5 29.5t29.5 70.5t-29.5 70.5t-70.5 29.5t-70.5 -29.5t-29.5 -70.5zM618 1370q0 -41 30 -70.5t71 -29.5t70.5 29.5t29.5 70.5t-29.5 70.5t-70.5 29.5t-71 -29.5t-30 -70.5z" />
<glyph unicode="&#xe5;" horiz-adv-x="1282" d="M41 573q0 -125 47 -229t122 -181t170 -120t191 -43q76 0 133.5 16.5t97.5 38t62.5 40t28.5 22.5q10 -43 53 -80t98 -37q66 0 112 47t46 113v829q0 66 -46 112t-112 46q-55 0 -98 -37t-53 -80q-6 4 -28.5 22.5t-62.5 40t-97.5 38t-133.5 16.5q-96 0 -191 -43t-170 -119 t-122 -181.5t-47 -230.5zM358 573q0 55 20.5 103.5t56.5 84.5t84.5 56.5t103.5 20.5t102 -20.5t83 -56.5t56.5 -84t20.5 -104q0 -55 -20.5 -103t-56.5 -84t-83 -56.5t-102 -20.5t-103.5 20.5t-84.5 56.5t-56.5 84t-20.5 103zM410 1470q0 -84 58 -142t142 -58t142.5 58 t58.5 142t-58.5 142.5t-142.5 58.5t-142 -58.5t-58 -142.5zM510 1470q0 41 29.5 71t70.5 30t71 -30t30 -71t-30 -70.5t-71 -29.5t-70.5 30t-29.5 70z" />
<glyph unicode="&#xe6;" horiz-adv-x="2004" d="M41 573q0 -125 47 -229t122 -181t170 -120t191 -43q76 0 133.5 16.5t97.5 38t62.5 40t28.5 22.5q10 -43 53 -80t98 -37q41 0 75 19.5t52 46.5q63 -35 136.5 -56.5t165.5 -21.5q123 0 225 42t168 103q27 23 37 50.5t10 54.5q0 33 -13.5 63.5t-36 54t-52 38t-60.5 14.5 q-37 0 -61.5 -17.5t-51 -39t-64.5 -39t-101 -17.5q-23 0 -51.5 6t-53.5 15.5t-41 21.5t-16 24t26 25l537 223q47 18 68.5 56.5t21.5 89.5q0 92 -42 165.5t-110.5 127t-157.5 82t-181 28.5q-86 0 -166 -21.5t-136 -56.5q-18 27 -52 46.5t-75 19.5q-55 0 -98 -37t-53 -80 q-6 4 -28.5 22.5t-62.5 40t-97.5 38t-133.5 16.5q-96 0 -191 -43t-170 -119t-122 -181.5t-47 -230.5zM358 573q0 55 20.5 103.5t56.5 84.5t84.5 56.5t103.5 20.5t102 -20.5t83 -56.5t56.5 -84t20.5 -104q0 -55 -20.5 -103t-56.5 -84t-83 -56.5t-102 -20.5t-103.5 20.5 t-84.5 56.5t-56.5 84t-20.5 103zM1210 643q0 31 19.5 68t54.5 67.5t83 52t106 21.5q57 0 101 -18.5t44 -40.5q0 -16 -31 -29l-332 -139q-12 -4 -18 -4q-27 -1 -27 22z" />
<glyph unicode="&#xe7;" horiz-adv-x="1130" d="M41 573q0 -129 44 -231t115.5 -176t163 -118t187.5 -56v-80q0 -33 -22.5 -55.5t-55.5 -22.5h-115q-33 0 -55 -22.5t-22 -55.5t22.5 -54t54.5 -21h115q47 0 89 18t74 50t50.5 74t18.5 89v80q78 10 163.5 46t151.5 95q37 35 53.5 69t16.5 66q0 61 -48.5 104.5t-111.5 43.5 q-45 0 -75 -18.5t-58.5 -42t-67.5 -42t-102 -18.5q-57 0 -108.5 21.5t-89.5 59.5t-59.5 89t-21.5 108t21.5 108.5t59.5 89.5t89 59.5t109 21.5q61 0 100 -18.5t70.5 -41t61.5 -41t71 -18.5q63 0 111.5 42t48.5 104q0 33 -16.5 66.5t-53.5 68.5q-66 59 -166 102t-227 43 q-121 0 -227.5 -43t-186.5 -120.5t-126 -185.5t-46 -237z" />
<glyph unicode="&#xe8;" horiz-adv-x="1159" d="M41 573q0 -129 46 -236.5t126 -185t186.5 -120.5t227.5 -43q123 0 225 42t168 103q47 47 47 107q0 33 -13.5 62.5t-36 52t-52 37t-60.5 14.5q-41 0 -64.5 -17.5t-49 -38t-62.5 -38t-102 -17.5q-23 0 -51.5 6t-53 15.5t-41 20.5t-16.5 23q0 15 29 27l534 223 q47 18 68.5 56.5t21.5 89.5q0 92 -42 165.5t-110.5 127t-157.5 82t-181 28.5q-121 0 -227.5 -43t-186.5 -120.5t-126 -185.5t-46 -237zM367 643q0 31 19.5 68t54 67.5t81.5 52t105 21.5q59 0 102 -18.5t43 -40.5q0 -16 -29 -29l-331 -139q-12 -4 -21 -4q-10 0 -17 5t-7 17z M401 1458q0 -18 8.5 -36.5t24.5 -28.5l162 -105q23 -16 49 -16q18 0 35.5 15.5t17.5 39.5q0 23 -16 49l-102 162q-25 33 -66 33q-51 0 -82 -36t-31 -77z" />
<glyph unicode="&#xe9;" horiz-adv-x="1159" d="M41 573q0 -129 46 -236.5t126 -185t186.5 -120.5t227.5 -43q123 0 225 42t168 103q47 47 47 107q0 33 -13.5 62.5t-36 52t-52 37t-60.5 14.5q-41 0 -64.5 -17.5t-49 -38t-62.5 -38t-102 -17.5q-23 0 -51.5 6t-53 15.5t-41 20.5t-16.5 23q0 15 29 27l534 223 q47 18 68.5 56.5t21.5 89.5q0 92 -42 165.5t-110.5 127t-157.5 82t-181 28.5q-121 0 -227.5 -43t-186.5 -120.5t-126 -185.5t-46 -237zM367 643q0 31 19.5 68t54 67.5t81.5 52t105 21.5q59 0 102 -18.5t43 -40.5q0 -16 -29 -29l-331 -139q-12 -4 -21 -4q-10 0 -17 5t-7 17z M543 1327q0 -25 17.5 -40t35.5 -15q26 0 49 16l162 105q16 10 24.5 28.5t8.5 36.5q0 41 -31 77t-82 36q-41 0 -65 -33l-103 -162q-16 -27 -16 -49z" />
<glyph unicode="&#xea;" horiz-adv-x="1159" d="M41 573q0 -129 46 -236.5t126 -185t186.5 -120.5t227.5 -43q123 0 225 42t168 103q47 47 47 107q0 33 -13.5 62.5t-36 52t-52 37t-60.5 14.5q-41 0 -64.5 -17.5t-49 -38t-62.5 -38t-102 -17.5q-23 0 -51.5 6t-53 15.5t-41 20.5t-16.5 23q0 15 29 27l534 223 q47 18 68.5 56.5t21.5 89.5q0 92 -42 165.5t-110.5 127t-157.5 82t-181 28.5q-121 0 -227.5 -43t-186.5 -120.5t-126 -185.5t-46 -237zM367 643q0 31 19.5 68t54 67.5t81.5 52t105 21.5q59 0 102 -18.5t43 -40.5q0 -16 -29 -29l-331 -139q-12 -4 -21 -4q-10 0 -17 5t-7 17z M377 1343q0 -31 22.5 -53t53.5 -22q27 0 53 22l117 115l114 -115q23 -23 54 -22q31 0 54 22.5t23 52.5q0 33 -22 56l-166 168q-27 27 -57 26q-31 0 -58 -26l-168 -168q-20 -20 -20 -56z" />
<glyph unicode="&#xeb;" horiz-adv-x="1159" d="M41 573q0 -129 46 -236.5t126 -185t186.5 -120.5t227.5 -43q123 0 225 42t168 103q47 47 47 107q0 33 -13.5 62.5t-36 52t-52 37t-60.5 14.5q-41 0 -64.5 -17.5t-49 -38t-62.5 -38t-102 -17.5q-23 0 -51.5 6t-53 15.5t-41 20.5t-16.5 23q0 15 29 27l534 223 q47 18 68.5 56.5t21.5 89.5q0 92 -42 165.5t-110.5 127t-157.5 82t-181 28.5q-121 0 -227.5 -43t-186.5 -120.5t-126 -185.5t-46 -237zM367 643q0 31 19.5 68t54 67.5t81.5 52t105 21.5q59 0 102 -18.5t43 -40.5q0 -16 -29 -29l-331 -139q-12 -4 -21 -4q-10 0 -17 5t-7 17z M395 1370q0 -41 30 -70.5t71 -29.5t70.5 29.5t29.5 70.5t-29.5 70.5t-70.5 29.5t-71 -29.5t-30 -70.5zM647 1370q0 -41 30 -70.5t71 -29.5t70.5 29.5t29.5 70.5t-29.5 70.5t-70.5 29.5t-71 -29.5t-30 -70.5z" />
<glyph unicode="&#xec;" horiz-adv-x="477" d="M-6 1458q0 -18 8 -36.5t25 -28.5l161 -105q23 -16 50 -16q18 0 35.5 15.5t17.5 39.5q0 23 -17 49l-102 162q-25 33 -66 33q-51 0 -81.5 -36t-30.5 -77zM80 160q0 -33 12 -62.5t33.5 -51t50.5 -34t62 -12.5q66 0 112.5 47t46.5 113v829q0 33 -12 61.5t-33.5 50t-51.5 34 t-62 12.5q-66 0 -112 -46t-46 -112v-829z" />
<glyph unicode="&#xed;" horiz-adv-x="477" d="M80 160q0 -33 12 -62.5t33.5 -51t50.5 -34t62 -12.5q66 0 112.5 47t46.5 113v829q0 33 -12 61.5t-33.5 50t-51.5 34t-62 12.5q-66 0 -112 -46t-46 -112v-829zM184 1327q0 -25 17.5 -40t36.5 -15q26 0 49 16l162 105q16 10 24 28.5t8 36.5q0 41 -30.5 77t-81.5 36 q-41 0 -66 -33l-102 -162q-16 -27 -17 -49z" />
<glyph unicode="&#xee;" horiz-adv-x="477" d="M-8 1343q0 -31 22.5 -53t53.5 -22q27 0 53 22l117 115l114 -115q23 -23 54 -22q31 0 54 22.5t23 52.5q0 33 -22 56l-166 168q-27 27 -57 26q-31 0 -58 -26l-168 -168q-20 -20 -20 -56zM80 160q0 -33 12 -62.5t33.5 -51t50.5 -34t62 -12.5q66 0 112.5 47t46.5 113v829 q0 33 -12 61.5t-33.5 50t-51.5 34t-62 12.5q-66 0 -112 -46t-46 -112v-829z" />
<glyph unicode="&#xef;" horiz-adv-x="477" d="M12 1370q0 -41 30 -70.5t71 -29.5t70.5 29.5t29.5 70.5t-29.5 70.5t-70.5 29.5t-71 -29.5t-30 -70.5zM80 160q0 -33 12 -62.5t33.5 -51t50.5 -34t62 -12.5q66 0 112.5 47t46.5 113v829q0 33 -12 61.5t-33.5 50t-51.5 34t-62 12.5q-66 0 -112 -46t-46 -112v-829zM262 1370 q0 -41 30 -70.5t70 -29.5q41 0 71 29.5t30 70.5t-30 70.5t-71 29.5t-70.5 -29.5t-29.5 -70.5z" />
<glyph unicode="&#xf0;" horiz-adv-x="1253" d="M41 573q0 -129 46 -236.5t126 -185t186.5 -120.5t227.5 -43t227.5 43t186 120.5t125.5 185t46 236.5q0 166 -19 295t-63.5 228.5t-117 176.5t-176.5 140l98 98h-127l-57 -57q-109 47 -230 69.5t-266 24.5q-37 0 -62.5 -25.5t-25.5 -62.5t25.5 -62.5t62.5 -25.5 q90 0 185.5 -12t170.5 -47l-90 -90h125l51 51q47 -25 93 -64t75 -98q-39 16 -95 31.5t-142 15.5q-121 0 -227.5 -43t-186.5 -120.5t-126 -185.5t-46 -237zM348 573q0 57 21.5 108.5t59.5 89.5t89 59.5t109 21.5q57 0 108 -21.5t89 -59.5t59.5 -89t21.5 -109 q0 -57 -21.5 -108t-59.5 -89t-89 -59.5t-108 -21.5t-108.5 21.5t-89.5 59.5t-59.5 89t-21.5 108z" />
<glyph unicode="&#xf1;" horiz-adv-x="1146" d="M80 160q0 -66 46 -113t112 -47t112.5 47t46.5 113v522q0 70 52.5 115t123.5 45q70 0 123.5 -45t53.5 -115v-522q0 -66 47 -113t112 -47q33 0 61.5 12.5t50 34t34 51t12.5 62.5v506q0 102 -39 192t-105.5 156.5t-157 105.5t-192.5 39t-192 -39t-156.5 -105.5 t-105.5 -156.5t-39 -192v-506zM268 1417q0 -20 13.5 -34.5t35.5 -14.5q23 0 37.5 14.5t14.5 34.5q0 33 22 55.5t53 22.5t53.5 -22.5t22.5 -55.5q0 -84 52.5 -130t123.5 -46q37 0 70 14.5t57.5 38t37.5 55t13 68.5q0 23 -14 37t-37 14q-20 0 -34.5 -14t-14.5 -37 q0 -31 -22.5 -53.5t-55.5 -22.5q-31 0 -53 22.5t-22 53.5q0 86 -52.5 132t-124.5 46q-74 0 -125 -51t-51 -127z" />
<glyph unicode="&#xf2;" horiz-adv-x="1253" d="M41 573q0 -129 46 -236.5t126 -185t186.5 -120.5t227.5 -43t227.5 43t186 120.5t125.5 185t46 236.5t-46 237t-125.5 185.5t-186 120.5t-227.5 43t-227.5 -43t-186.5 -120.5t-126 -185.5t-46 -237zM348 573q0 57 21.5 108.5t59.5 89.5t89 59.5t109 21.5q57 0 108 -21.5 t89 -59.5t59.5 -89t21.5 -109q0 -57 -21.5 -108t-59.5 -89t-89 -59.5t-108 -21.5t-108.5 21.5t-89.5 59.5t-59.5 89t-21.5 108zM383 1458q0 -18 8 -36.5t25 -28.5l162 -105q23 -16 49 -16q18 0 35.5 15.5t17.5 39.5q0 23 -16 49l-103 162q-25 33 -65 33q-51 0 -82 -36 t-31 -77z" />
<glyph unicode="&#xf3;" horiz-adv-x="1253" d="M41 573q0 -129 46 -236.5t126 -185t186.5 -120.5t227.5 -43t227.5 43t186 120.5t125.5 185t46 236.5t-46 237t-125.5 185.5t-186 120.5t-227.5 43t-227.5 -43t-186.5 -120.5t-126 -185.5t-46 -237zM348 573q0 57 21.5 108.5t59.5 89.5t89 59.5t109 21.5q57 0 108 -21.5 t89 -59.5t59.5 -89t21.5 -109q0 -57 -21.5 -108t-59.5 -89t-89 -59.5t-108 -21.5t-108.5 21.5t-89.5 59.5t-59.5 89t-21.5 108zM553 1327q0 -25 17.5 -40t35.5 -15q26 0 49 16l162 105q16 10 24.5 28.5t8.5 36.5q0 41 -31 77t-82 36q-41 0 -65 -33l-103 -162 q-16 -27 -16 -49z" />
<glyph unicode="&#xf4;" horiz-adv-x="1253" d="M41 573q0 -129 46 -236.5t126 -185t186.5 -120.5t227.5 -43t227.5 43t186 120.5t125.5 185t46 236.5t-46 237t-125.5 185.5t-186 120.5t-227.5 43t-227.5 -43t-186.5 -120.5t-126 -185.5t-46 -237zM348 573q0 57 21.5 108.5t59.5 89.5t89 59.5t109 21.5q57 0 108 -21.5 t89 -59.5t59.5 -89t21.5 -109q0 -57 -21.5 -108t-59.5 -89t-89 -59.5t-108 -21.5t-108.5 21.5t-89.5 59.5t-59.5 89t-21.5 108zM377 1343q0 -31 22.5 -53t53.5 -22q27 0 53 22l117 115l114 -115q23 -23 54 -22q31 0 54 22.5t23 52.5q0 33 -22 56l-166 168q-27 27 -57 26 q-31 0 -58 -26l-168 -168q-20 -20 -20 -56z" />
<glyph unicode="&#xf5;" horiz-adv-x="1253" d="M41 573q0 -129 46 -236.5t126 -185t186.5 -120.5t227.5 -43t227.5 43t186 120.5t125.5 185t46 236.5t-46 237t-125.5 185.5t-186 120.5t-227.5 43t-227.5 -43t-186.5 -120.5t-126 -185.5t-46 -237zM328 1417q0 -20 13 -34.5t36 -14.5t37 14.5t14 34.5q0 33 22.5 55.5 t53.5 22.5t53.5 -22.5t22.5 -55.5q0 -84 52 -130t124 -46q37 0 69.5 14.5t57 38t38 55t13.5 68.5q0 23 -14.5 37t-36.5 14q-20 0 -34.5 -14t-14.5 -37q0 -31 -23 -53.5t-55 -22.5q-31 0 -53.5 22.5t-22.5 53.5q0 86 -52.5 132t-123.5 46q-74 0 -125 -51t-51 -127zM348 573 q0 57 21.5 108.5t59.5 89.5t89 59.5t109 21.5q57 0 108 -21.5t89 -59.5t59.5 -89t21.5 -109q0 -57 -21.5 -108t-59.5 -89t-89 -59.5t-108 -21.5t-108.5 21.5t-89.5 59.5t-59.5 89t-21.5 108z" />
<glyph unicode="&#xf6;" horiz-adv-x="1253" d="M41 573q0 -129 46 -236.5t126 -185t186.5 -120.5t227.5 -43t227.5 43t186 120.5t125.5 185t46 236.5t-46 237t-125.5 185.5t-186 120.5t-227.5 43t-227.5 -43t-186.5 -120.5t-126 -185.5t-46 -237zM348 573q0 57 21.5 108.5t59.5 89.5t89 59.5t109 21.5q57 0 108 -21.5 t89 -59.5t59.5 -89t21.5 -109q0 -57 -21.5 -108t-59.5 -89t-89 -59.5t-108 -21.5t-108.5 21.5t-89.5 59.5t-59.5 89t-21.5 108zM399 1370q0 -41 30 -70.5t71 -29.5t70.5 29.5t29.5 70.5t-29.5 70.5t-70.5 29.5t-71 -29.5t-30 -70.5zM651 1370q0 -41 30 -70.5t71 -29.5 t70.5 29.5t29.5 70.5t-29.5 70.5t-70.5 29.5t-71 -29.5t-30 -70.5z" />
<glyph unicode="&#xf8;" horiz-adv-x="1253" d="M41 573q0 -90 25.5 -179t91.5 -179l-82 -80q-23 -23 -23 -57q0 -33 22.5 -55.5t55.5 -22.5q35 0 57 23l82 81q68 -51 156 -83.5t201 -32.5q121 0 227.5 43t186 120.5t125.5 185t46 236.5q0 86 -24.5 178.5t-89.5 180.5l80 80q23 23 22 57q0 33 -22.5 55.5t-55.5 22.5 q-35 0 -57 -23l-80 -82q-70 51 -157 84t-201 33q-121 0 -227.5 -43t-186.5 -120.5t-126 -185.5t-46 -237zM348 573q0 57 21.5 107.5t59.5 88.5t88 60.5t110 22.5q41 0 71.5 -8t61.5 -25l-377 -379q-16 29 -25.5 60.5t-9.5 72.5zM494 330l378 377q16 -29 24.5 -61t8.5 -73 q0 -59 -22.5 -109t-60.5 -88t-88 -59.5t-107 -21.5q-43 0 -76.5 10.5t-56.5 24.5z" />
<glyph unicode="&#xf9;" horiz-adv-x="1146" d="M80 481q0 -102 39 -192t105.5 -156.5t156.5 -105.5t192 -39t192.5 39t157 105.5t105.5 156.5t39 192v508q0 66 -46 112t-112 46q-33 0 -62.5 -12.5t-51 -34t-33.5 -50t-12 -61.5v-522q0 -72 -53.5 -117t-123.5 -45q-72 0 -124 45t-52 117v522q0 33 -12 61.5t-33.5 50 t-51.5 34t-62 12.5q-66 0 -112 -46t-46 -112v-508zM330 1458q0 -18 8 -36.5t24 -28.5l162 -105q23 -16 49 -16q18 0 36 15.5t18 39.5q0 23 -17 49l-102 162q-25 33 -66 33q-51 0 -81.5 -36t-30.5 -77z" />
<glyph unicode="&#xfa;" horiz-adv-x="1146" d="M80 481q0 -102 39 -192t105.5 -156.5t156.5 -105.5t192 -39t192.5 39t157 105.5t105.5 156.5t39 192v508q0 66 -46 112t-112 46q-33 0 -62.5 -12.5t-51 -34t-33.5 -50t-12 -61.5v-522q0 -72 -53.5 -117t-123.5 -45q-72 0 -124 45t-52 117v522q0 33 -12 61.5t-33.5 50 t-51.5 34t-62 12.5q-66 0 -112 -46t-46 -112v-508zM492 1327q0 -25 17 -40t36 -15q26 0 49 16l162 105q16 10 24 28.5t8 36.5q0 41 -30.5 77t-81.5 36q-41 0 -66 -33l-102 -162q-16 -27 -16 -49z" />
<glyph unicode="&#xfb;" horiz-adv-x="1146" d="M80 481q0 -102 39 -192t105.5 -156.5t156.5 -105.5t192 -39t192.5 39t157 105.5t105.5 156.5t39 192v508q0 66 -46 112t-112 46q-33 0 -62.5 -12.5t-51 -34t-33.5 -50t-12 -61.5v-522q0 -72 -53.5 -117t-123.5 -45q-72 0 -124 45t-52 117v522q0 33 -12 61.5t-33.5 50 t-51.5 34t-62 12.5q-66 0 -112 -46t-46 -112v-508zM328 1343q0 -31 22.5 -53t52.5 -22q27 0 54 22l116 115l115 -115q23 -23 53 -22q31 0 54.5 22.5t23.5 52.5q0 33 -22 56l-166 168q-27 27 -58 26q-31 0 -57 -26l-168 -168q-20 -20 -20 -56z" />
<glyph unicode="&#xfc;" horiz-adv-x="1146" d="M80 481q0 -102 39 -192t105.5 -156.5t156.5 -105.5t192 -39t192.5 39t157 105.5t105.5 156.5t39 192v508q0 66 -46 112t-112 46q-33 0 -62.5 -12.5t-51 -34t-33.5 -50t-12 -61.5v-522q0 -72 -53.5 -117t-123.5 -45q-72 0 -124 45t-52 117v522q0 33 -12 61.5t-33.5 50 t-51.5 34t-62 12.5q-66 0 -112 -46t-46 -112v-508zM344 1370q0 -41 29.5 -70.5t70.5 -29.5t71 29.5t30 70.5t-30 70.5t-71 29.5t-70.5 -29.5t-29.5 -70.5zM596 1370q0 -41 29.5 -70.5t70.5 -29.5t71 29.5t30 70.5t-30 70.5t-71 29.5t-70.5 -29.5t-29.5 -70.5z" />
<glyph unicode="&#xfd;" horiz-adv-x="1200" d="M27 -156q0 -49 23.5 -87t62.5 -64.5t87 -39.5t97 -13q133 0 215 65.5t137 177.5l510 1035q14 31 15 67q0 37 -14.5 67.5t-37 51t-50.5 32t-56 11.5q-45 0 -83 -23.5t-59 -66.5l-260 -578l-247 578q-18 43 -57.5 66.5t-86.5 23.5q-41 0 -69.5 -15.5t-49 -38t-29.5 -51 t-9 -55.5q0 -33 16 -69l377 -781l-51 -110q-14 -31 -36 -50.5t-50 -19.5q-23 0 -37.5 6t-28.5 12.5t-32.5 12.5t-49.5 6q-61 0 -104 -44t-43 -106zM557 1327q0 -25 17.5 -40t35.5 -15q26 0 49 16l162 105q16 10 24.5 28.5t8.5 36.5q0 41 -30.5 77t-82.5 36q-41 0 -65 -33 l-103 -162q-16 -27 -16 -49z" />
<glyph unicode="&#xfe;" horiz-adv-x="1296" d="M94 -231q0 -66 46 -112t112 -46q33 0 62.5 12t51 33.5t34 50.5t12.5 62v292q0 43 12 43q10 0 30.5 -16t56.5 -35.5t88 -36t126 -16.5q96 0 191.5 43t170 120t121.5 181.5t47 228.5q0 125 -47 230.5t-121.5 181.5t-170 119t-191.5 43q-74 0 -126 -16.5t-88 -36t-56.5 -36 t-30.5 -16.5q-12 0 -12 43v293q0 33 -12.5 61.5t-34 50t-51 34t-62.5 12.5q-66 0 -112 -46t-46 -112v-1609zM412 573q0 55 20.5 103.5t56 84.5t82.5 56.5t103 20.5q55 0 103 -20.5t84 -56.5t56.5 -84.5t20.5 -103.5t-20.5 -103t-56.5 -84t-84 -56.5t-103 -20.5t-102.5 20.5 t-83 56.5t-56 84t-20.5 103z" />
<glyph unicode="&#xff;" horiz-adv-x="1161" d="M-12 -156q0 -49 23.5 -87t62.5 -64.5t87 -39.5t97 -13q133 0 215 65.5t137 177.5l510 1035q14 29 15.5 60.5t-9 60t-31 53t-48.5 38.5q-59 29 -122 7.5t-89 -80.5l-261 -578l-247 578q-12 31 -37 51t-53.5 29.5t-60.5 8.5t-62 -16q-59 -29 -80 -91t8 -121l377 -781 l-51 -110q-12 -31 -35 -50.5t-51 -19.5q-23 0 -37.5 6t-28.5 12.5t-32.5 12.5t-49.5 6q-61 0 -104 -44t-43 -106zM342 1370q0 -41 29.5 -70.5t70.5 -29.5t71 29.5t30 70.5t-30 70.5t-71 29.5t-70.5 -29.5t-29.5 -70.5zM594 1370q0 -41 29.5 -70.5t70.5 -29.5t71 29.5 t30 70.5t-30 70.5t-71 29.5t-70.5 -29.5t-29.5 -70.5z" />
<glyph unicode="&#x152;" horiz-adv-x="2347" d="M41 768q0 -164 62.5 -309.5t170 -253t252 -170t308.5 -62.5q139 0 249.5 41.5t198.5 100.5q8 -16 20.5 -36t33 -37t48 -29.5t64.5 -12.5h692q70 0 118 48t48 118t-48 118t-118 48h-512v303h393q66 0 110 45t44 108t-44 108.5t-110 45.5h-393v260h512q70 0 118 49t48 119 q0 68 -48 117t-118 49h-692q-37 0 -64.5 -12.5t-48 -29.5t-33 -36.5t-20.5 -36.5q-88 59 -199.5 99.5t-248.5 40.5q-164 0 -308.5 -61.5t-252 -169t-170 -253t-62.5 -309.5zM399 768q0 90 34 169t93.5 138.5t138 93t169.5 33.5q90 0 169.5 -33.5t139 -93t93.5 -138.5 t34 -169t-34 -169t-93.5 -138.5t-139 -94t-169.5 -34.5t-169 34.5t-138.5 94t-93.5 138.5t-34 169z" />
<glyph unicode="&#x153;" horiz-adv-x="2025" d="M41 573q0 -129 46 -236.5t126 -185t186.5 -120.5t227.5 -43q139 0 247.5 51t184.5 133q78 -82 186.5 -133t247.5 -51q123 0 225.5 42t167.5 103q27 23 37 50.5t10 54.5q0 33 -13 63.5t-35.5 54t-52.5 38t-60 14.5q-37 0 -61.5 -17.5t-50.5 -39t-63.5 -39t-103.5 -17.5 q-23 0 -51.5 6t-53 15.5t-41 21.5t-16.5 24t27 25l536 223q47 18 69 56.5t22 89.5q0 92 -42 165.5t-111 127t-158 82t-181 28.5q-129 0 -247 -51t-187 -131q-74 78 -182.5 130t-249.5 52q-121 0 -227.5 -43t-186.5 -120.5t-126 -185.5t-46 -237zM348 573q0 57 21.5 108.5 t59.5 89.5t89 59.5t109 21.5q57 0 108 -21.5t89 -59.5t59.5 -89t21.5 -109q0 -57 -21.5 -108t-59.5 -89t-89 -59.5t-108 -21.5t-108.5 21.5t-89.5 59.5t-59.5 89t-21.5 108zM1231 643q0 31 19.5 68t54 67.5t83 52t105.5 21.5t101 -18.5t44 -40.5q0 -16 -30 -29l-332 -139 q-12 -4 -19 -4q-26 -1 -26 22z" />
<glyph unicode="&#x178;" horiz-adv-x="1327" d="M26.5 1387.5q-6.5 -33.5 1 -67.5t27.5 -65l430 -620v-455q0 -76 52.5 -128t126.5 -52t127 52t53 128v455l428 620q20 31 27.5 65t1 67.5t-25 64.5t-49 51.5t-65.5 27.5t-68.5 1t-64.5 -24.5t-51 -49.5l-313 -450l-314 450q-20 31 -51 49.5t-64.5 24.5t-68.5 -1 t-65.5 -27.5t-49 -51.5t-25 -64.5zM438 1790q0 -41 30 -70.5t71 -29.5t70.5 29.5t29.5 70.5t-29.5 70.5t-70.5 29.5t-71 -29.5t-30 -70.5zM690 1790q0 -41 30 -70.5t71 -29.5t70.5 29.5t29.5 70.5t-29.5 70.5t-70.5 29.5t-71 -29.5t-30 -70.5z" />
<glyph unicode="&#x2c6;" horiz-adv-x="573" d="M41 1313q0 -31 22.5 -53.5t53.5 -22.5q27 0 53 23l117 114l114 -114q23 -23 54 -23t54 22.5t23 53.5q0 33 -22 55l-166 168q-27 27 -57 27q-31 0 -58 -27l-168 -168q-20 -20 -20 -55z" />
<glyph unicode="&#x2dc;" horiz-adv-x="1003" d="M41 1292q0 -31 21.5 -53t54.5 -22t55.5 22.5t22.5 52.5q0 47 33.5 82t80.5 35t81 -35t34 -82q0 -63 21.5 -112.5t57.5 -84t85 -53t104 -18.5t104.5 21.5t86.5 57.5t58.5 85t21.5 104q0 33 -22.5 55.5t-55.5 22.5t-54.5 -22.5t-21.5 -55.5q0 -47 -35 -80.5t-82 -33.5 t-80.5 33.5t-33.5 80.5q0 63 -21.5 113.5t-57.5 85.5t-85 53.5t-105 18.5q-55 0 -104 -21.5t-85 -58.5t-57.5 -86t-21.5 -105z" />
<glyph unicode="&#x2000;" horiz-adv-x="1039" />
<glyph unicode="&#x2001;" horiz-adv-x="2079" />
<glyph unicode="&#x2002;" horiz-adv-x="1039" />
<glyph unicode="&#x2003;" horiz-adv-x="2079" />
<glyph unicode="&#x2004;" horiz-adv-x="693" />
<glyph unicode="&#x2005;" horiz-adv-x="519" />
<glyph unicode="&#x2006;" horiz-adv-x="346" />
<glyph unicode="&#x2007;" horiz-adv-x="346" />
<glyph unicode="&#x2008;" horiz-adv-x="259" />
<glyph unicode="&#x2009;" horiz-adv-x="415" />
<glyph unicode="&#x200a;" horiz-adv-x="115" />
<glyph unicode="&#x2010;" horiz-adv-x="798" d="M41 768q0 -47 32.5 -80t80.5 -33h491q47 0 80 33t33 80t-33 80t-80 33h-491q-47 0 -80 -33t-33 -80z" />
<glyph unicode="&#x2011;" horiz-adv-x="798" d="M41 768q0 -47 32.5 -80t80.5 -33h491q47 0 80 33t33 80t-33 80t-80 33h-491q-47 0 -80 -33t-33 -80z" />
<glyph unicode="&#x2012;" horiz-adv-x="798" d="M41 768q0 -47 32.5 -80t80.5 -33h491q47 0 80 33t33 80t-33 80t-80 33h-491q-47 0 -80 -33t-33 -80z" />
<glyph unicode="&#x2013;" horiz-adv-x="1105" d="M41 768q0 -41 29.5 -71.5t72.5 -30.5h820q41 0 71.5 30.5t30.5 71.5q0 43 -30.5 72.5t-71.5 29.5h-820q-43 0 -72.5 -29.5t-29.5 -72.5z" />
<glyph unicode="&#x2014;" horiz-adv-x="2129" d="M41 768q0 -41 29.5 -71.5t72.5 -30.5h1844q41 0 71.5 30.5t30.5 71.5q0 43 -30.5 72.5t-71.5 29.5h-1844q-43 0 -72.5 -29.5t-29.5 -72.5z" />
<glyph unicode="&#x2018;" horiz-adv-x="481" d="M41 1196q0 -41 15.5 -77t43 -63.5t64.5 -43t78 -15.5t77.5 15.5t63.5 43t42 63.5t15 77q0 61 -31.5 108.5t-78.5 69.5l18 43q10 25 10 41q0 43 -30.5 74t-73.5 31q-33 0 -59.5 -17.5t-38.5 -46.5l-99 -225q-16 -35 -16 -78z" />
<glyph unicode="&#x2019;" horiz-adv-x="481" d="M41 1364q0 -61 31.5 -108.5t79.5 -69.5l-19 -43q-10 -25 -10 -41q0 -43 30.5 -74t73.5 -31q33 0 59.5 17.5t39.5 46.5l98 225q16 35 16 78q0 41 -15 77t-43 63.5t-64.5 43t-77.5 15.5t-78 -15.5t-63.5 -43t-42 -63.5t-15.5 -77z" />
<glyph unicode="&#x201a;" horiz-adv-x="481" d="M41 201q0 -61 31.5 -108.5t79.5 -69.5l-19 -43q-10 -25 -10 -41q0 -43 30.5 -74t73.5 -31q33 0 59.5 17.5t39.5 46.5l98 225q16 35 16 78q0 41 -15 76.5t-43 63.5t-64.5 43t-77.5 15t-78 -15t-63.5 -43t-42 -63.5t-15.5 -76.5z" />
<glyph unicode="&#x201c;" horiz-adv-x="931" d="M41 1196q0 -41 15.5 -77t43 -63.5t64.5 -43t78 -15.5t77.5 15.5t63.5 43t42 63.5t15 77q0 61 -31.5 108.5t-78.5 69.5l18 43q10 25 10 41q0 43 -30.5 74t-73.5 31q-33 0 -59.5 -17.5t-38.5 -46.5l-99 -225q-16 -35 -16 -78zM492 1196q0 -41 15 -77t43 -63.5t64.5 -43 t77.5 -15.5t78 15.5t63.5 43t42 63.5t15.5 77q0 61 -32 108.5t-79 69.5l19 43q10 25 10 41q0 43 -30.5 74t-73.5 31q-33 0 -60 -17.5t-39 -46.5l-98 -225q-16 -35 -16 -78z" />
<glyph unicode="&#x201d;" horiz-adv-x="931" d="M41 1364q0 -61 31.5 -108.5t79.5 -69.5l-19 -43q-10 -25 -10 -41q0 -43 30.5 -74t73.5 -31q33 0 59.5 17.5t39.5 46.5l98 225q16 35 16 78q0 41 -15 77t-43 63.5t-64.5 43t-77.5 15.5t-78 -15.5t-63.5 -43t-42 -63.5t-15.5 -77zM492 1364q0 -61 31.5 -108.5t78.5 -69.5 l-18 -43q-10 -25 -11 -41q0 -43 31 -74t74 -31q33 0 59.5 17.5t38.5 46.5l98 225q17 35 17 78q0 41 -15.5 77t-43 63.5t-64.5 43t-78 15.5t-78 -15.5t-63.5 -43t-41.5 -63.5t-15 -77z" />
<glyph unicode="&#x201e;" horiz-adv-x="481" d="M41 201q0 -61 31.5 -108.5t79.5 -69.5l-19 -43q-10 -25 -10 -41q0 -43 30.5 -74t73.5 -31q33 0 59.5 17.5t39.5 46.5l98 225q16 35 16 78q0 41 -15 76.5t-43 63.5t-64.5 43t-77.5 15t-78 -15t-63.5 -43t-42 -63.5t-15.5 -76.5zM490 201q0 -61 31.5 -108.5t79.5 -69.5 l-19 -43q-10 -25 -10 -41q0 -43 30.5 -74t73.5 -31q33 0 59.5 17.5t39.5 46.5l98 225q16 35 16 78q0 41 -15 76.5t-43 63.5t-64.5 43t-77.5 15t-78 -15t-63.5 -43t-42 -63.5t-15.5 -76.5z" />
<glyph unicode="&#x2022;" horiz-adv-x="593" d="M41 768q0 -53 20.5 -99t55.5 -81t81 -55.5t99 -20.5t99 20.5t81 55.5t55.5 81t20.5 99t-20.5 99t-55.5 81t-81 55.5t-99 20.5t-99 -20.5t-81 -55.5t-55.5 -81t-20.5 -99z" />
<glyph unicode="&#x2026;" horiz-adv-x="1382" d="M41 201q0 -84 57.5 -142.5t141.5 -58.5t142 58.5t58 142.5q0 41 -15 76.5t-43 63.5t-64.5 43t-77.5 15t-78 -15t-63.5 -43t-42 -63.5t-15.5 -76.5zM492 201q0 -84 57 -142.5t141 -58.5t142.5 58.5t58.5 142.5q0 41 -15.5 76.5t-43 63.5t-64.5 43t-78 15t-78 -15 t-63.5 -43t-41.5 -63.5t-15 -76.5zM942 201q0 -84 57.5 -142.5t141.5 -58.5t142 58.5t58 142.5q0 41 -15 76.5t-43 63.5t-64.5 43t-77.5 15t-78 -15t-63.5 -43t-42 -63.5t-15.5 -76.5z" />
<glyph unicode="&#x202f;" horiz-adv-x="415" />
<glyph unicode="&#x2039;" horiz-adv-x="563" d="M25 768q0 -47 30 -80l275 -274q33 -33 80 -33q45 0 78.5 30.5t33.5 80.5q0 43 -33 79l-194 197l194 195q33 33 33 79q0 51 -34.5 82t-77.5 31q-47 0 -80 -33l-275 -274q-30 -31 -30 -80z" />
<glyph unicode="&#x203a;" horiz-adv-x="563" d="M41 492q0 -49 34 -80t79 -31q47 0 79 33l275 274q31 33 31 80q0 49 -31 80l-275 274q-33 33 -79 33q-43 0 -78 -30.5t-35 -82.5q0 -47 33 -79l194 -195l-194 -197q-33 -37 -33 -79z" />
<glyph unicode="&#x205f;" horiz-adv-x="519" />
<glyph unicode="&#x2122;" horiz-adv-x="2330" d="M27 1413q0 -49 35.5 -85t87.5 -36h223v-751q0 -53 39 -92t92 -39t92 38.5t39 92.5v751h223q51 0 87 36t36 85q0 51 -36 87t-87 36h-708q-51 0 -87 -36t-36 -87zM942 541q0 -37 14.5 -62.5t34 -41t43 -21.5t41.5 -6q43 0 79 26.5t46 71.5l113 446l168 -458 q14 -39 40.5 -62.5t67.5 -23.5t69 23.5t42 62.5l166 458l112 -446q10 -45 46 -71.5t79 -26.5q37 0 62.5 13t41 33.5t22.5 43t7 41.5q0 10 -4 30l-217 865q-14 59 -54 79.5t-71 20.5q-41 0 -73.5 -23.5t-49.5 -64.5l-178 -485l-178 485q-16 41 -49 64.5t-74 23.5 q-31 0 -69.5 -20.5t-55.5 -79.5l-217 -865q-4 -20 -4 -30z" />
<glyph unicode="&#x25fc;" horiz-adv-x="1146" d="M0 0v1147h1147v-1147h-1147z" />
</font>
</defs>
</svg>
